<svg width="171" height="42" viewBox="0 0 171 42" fill="none" xmlns="http://www.w3.org/2000/svg">
<path d="M132.911 9.90944C131.799 9.31074 130.317 9.28223 130.288 9.28223H118.172L116.034 13.3876H126.582C127.637 13.3876 128.093 13.7582 128.35 14.1574C128.606 14.5565 128.635 15.0411 128.635 15.1837V27.3287H123.674C122.306 27.3002 121.707 26.73 121.336 26.0458C120.966 25.3616 120.909 24.5348 120.909 24.1927V23.9931C120.909 22.8242 121.393 22.083 121.907 21.5983C122.163 21.3418 122.391 21.1707 122.591 21.0566C122.676 20.9996 127.694 18.4053 127.694 18.4053V16.1245L118.913 17.3789C116.661 17.6355 115.492 19.3176 114.95 20.8286C114.38 22.3681 114.38 23.8506 114.38 23.9931V24.0216C114.38 27.4428 115.549 29.3529 116.889 30.3222C118.2 31.2916 119.569 31.3486 119.939 31.3486C119.996 31.3486 120.025 31.3486 120.025 31.3486H135.363V13.8437V13.8152C135.363 11.9336 134.023 10.5081 132.911 9.90944Z" fill="#828282"/>
<path d="M156.004 9.22559L150.188 22.0264C150.103 22.1689 149.96 22.2829 149.76 22.2829C149.561 22.2829 149.361 22.1119 149.304 21.9693L144.686 10.6796C144.686 10.6796 144.258 9.22559 142.548 9.22559H136.646L144.971 28.384C145.284 29.1822 145.57 30.7503 145.056 32.0332L140.495 41.2988H147.537L162.96 9.22559H156.004Z" fill="#828282"/>
<path d="M86.5264 2.38324V9.28253H79.3705H79.342C76.263 9.28253 74.809 10.1663 73.7541 11.9909C73.0414 13.2739 72.7278 15.07 72.7278 17.5218V23.2237C72.7278 25.6755 73.0414 27.4716 73.7541 28.7545C74.7805 30.5506 76.7191 31.4629 79.3135 31.4629H79.342H93.2546V0.701172C93.2546 0.701172 90.2041 0.701172 88.4365 0.701172C86.5264 0.701172 86.5264 2.38324 86.5264 2.38324ZM86.5264 27.3576H83.7325C81.7083 27.3576 80.6249 26.8444 80.1688 25.9321C79.9692 25.5615 79.6271 24.307 79.6271 21.1995V17.0086C79.6271 14.7849 79.9692 14.3572 80.3683 13.9296C80.7675 13.4734 81.2236 13.4164 81.7368 13.4164H86.5264V27.3576Z" fill="#828282"/>
<path d="M66.6838 10.1945C65.4579 9.36776 64.1464 9.28223 63.4907 9.28223C63.2911 9.28223 48.4092 9.28223 48.4092 9.28223V31.4626H55.337V13.4161H60.0125C61.0674 13.4446 61.5235 13.8437 61.8372 14.3854C62.1222 14.9271 62.1793 15.5828 62.1793 15.9534V31.4911H68.993V15.2977V15.2692C68.9645 12.5608 67.9382 10.9928 66.6838 10.1945Z" fill="#828282"/>
<path d="M44.6459 9.28223H37.8036V31.4341H44.6459V9.28223Z" fill="#828282"/>
<path d="M31.7596 10.1945C30.5337 9.36776 29.2222 9.28223 28.5665 9.28223H0V31.4341H6.78526V13.3876H11.4608C12.5157 13.3876 12.9718 13.8437 13.2854 14.3569C13.5705 14.8986 13.6275 15.5543 13.6275 15.8964V15.9249C13.6275 16.0675 13.6275 31.4341 13.6275 31.4341H20.3843V13.3876H25.0599C26.1147 13.3876 26.5709 13.8437 26.8845 14.3569C27.1696 14.8986 27.2266 15.5543 27.2266 15.8964C27.2266 15.8964 27.2266 15.8964 27.2266 15.9249C27.2266 16.0675 27.2266 31.4341 27.2266 31.4341H34.0403V15.2407C34.0403 12.5608 32.9855 10.9928 31.7596 10.1945Z" fill="#828282"/>
<path d="M109.248 9.28223C109.22 9.28223 109.22 9.28223 109.191 9.28223C102.036 9.28223 99.9258 11.734 98.928 16.5521L95.7064 31.4341H103.09L106.112 17.493C106.597 15.1837 107.053 14.3569 107.253 14.1859C107.68 13.6727 108.393 13.3876 110.018 13.3876H112.784L114.95 9.31074H109.248V9.28223Z" fill="#828282"/>
<path d="M165.583 9.73876H164.614V9.22559H167.151V9.73876H166.182V12.5897H165.583V9.73876Z" fill="#828282"/>
<path d="M170.373 11.2209C170.344 10.7933 170.316 10.2801 170.344 9.79547H170.316C170.202 10.1946 170.059 10.6508 169.917 11.0784L169.432 12.5324H168.947L168.491 11.1069C168.349 10.6793 168.235 10.2231 168.149 9.79547C168.121 10.2516 168.121 10.7648 168.092 11.2209L168.006 12.5609H167.436L167.664 9.19678H168.463L168.89 10.5367C169.004 10.9359 169.118 11.335 169.204 11.7056C169.289 11.335 169.403 10.9359 169.546 10.5367L170.002 9.19678H170.8L171 12.5609H170.401L170.373 11.2209Z" fill="#828282"/>
<path d="M37.8036 7.54345H44.6459V0.701172H39.9419C38.3453 0.701172 37.8036 1.55646 37.8036 2.63982V7.54345Z" fill="#828282"/>
</svg>
