<svg width="56" height="64" viewBox="0 0 56 64" fill="none" xmlns="http://www.w3.org/2000/svg">
<path d="M17.352 6.36C13.5424 7.40993 9.75861 8.5516 6.00402 9.784C5.66118 9.89506 5.35642 10.1002 5.12446 10.376C4.8925 10.6518 4.74266 10.9872 4.69202 11.344C2.47602 27.972 7.59602 40.104 13.704 48.096C16.2901 51.5136 19.3736 54.5243 22.852 57.028C24.236 58.004 25.46 58.708 26.424 59.16C26.904 59.388 27.296 59.54 27.596 59.632C27.7272 59.678 27.8625 59.7115 28 59.732C28.1359 59.7099 28.2697 59.6765 28.4 59.632C28.704 59.54 29.096 59.388 29.576 59.16C30.536 58.708 31.764 58 33.148 57.028C36.6264 54.5243 39.7099 51.5135 42.296 48.096C48.404 40.108 53.524 27.972 51.308 11.344C51.2578 10.987 51.1082 10.6514 50.8761 10.3755C50.6441 10.0996 50.3391 9.89464 49.996 9.784C47.392 8.932 42.996 7.544 38.648 6.364C34.208 5.16 30.124 4.268 28 4.268C25.88 4.268 21.792 5.16 17.352 6.364V6.36ZM16.288 2.24C20.628 1.06 25.24 0 28 0C30.76 0 35.372 1.06 39.712 2.24C44.152 3.44 48.628 4.86 51.26 5.72C52.3605 6.08341 53.3361 6.74986 54.0748 7.6428C54.8135 8.53575 55.2853 9.61896 55.436 10.768C57.82 28.676 52.288 41.948 45.576 50.728C42.7298 54.4839 39.336 57.7914 35.508 60.54C34.1844 61.4911 32.782 62.3275 31.316 63.04C30.196 63.568 28.992 64 28 64C27.008 64 25.808 63.568 24.684 63.04C23.2181 62.3275 21.8156 61.4911 20.492 60.54C16.6641 57.7913 13.2703 54.4838 10.424 50.728C3.71202 41.948 -1.81998 28.676 0.564022 10.768C0.714771 9.61896 1.18659 8.53575 1.92529 7.6428C2.66398 6.74986 3.63959 6.08341 4.74002 5.72C8.56079 4.46724 12.4112 3.3069 16.288 2.24Z" fill="#ED3237"/>
<path d="M39.416 20.584C39.6023 20.7698 39.75 20.9905 39.8509 21.2335C39.9517 21.4765 40.0036 21.737 40.0036 22C40.0036 22.2631 39.9517 22.5236 39.8509 22.7666C39.75 23.0095 39.6023 23.2303 39.416 23.416L27.416 35.416C27.2302 35.6023 27.0095 35.7501 26.7666 35.8509C26.5236 35.9517 26.2631 36.0036 26 36.0036C25.737 36.0036 25.4765 35.9517 25.2335 35.8509C24.9905 35.7501 24.7698 35.6023 24.584 35.416L18.584 29.416C18.3981 29.2301 18.2506 29.0093 18.1499 28.7664C18.0493 28.5234 17.9975 28.263 17.9975 28C17.9975 27.7371 18.0493 27.4767 18.1499 27.2337C18.2506 26.9907 18.3981 26.77 18.584 26.584C18.77 26.3981 18.9907 26.2506 19.2337 26.1499C19.4766 26.0493 19.737 25.9975 20 25.9975C20.263 25.9975 20.5234 26.0493 20.7664 26.1499C21.0093 26.2506 21.2301 26.3981 21.416 26.584L26 31.172L36.584 20.584C36.7698 20.3978 36.9905 20.25 37.2335 20.1492C37.4765 20.0484 37.737 19.9965 38 19.9965C38.2631 19.9965 38.5236 20.0484 38.7666 20.1492C39.0095 20.25 39.2302 20.3978 39.416 20.584Z" fill="#ED3237"/>
</svg>
