<svg width="50" height="50" viewBox="0 0 50 50" fill="none" xmlns="http://www.w3.org/2000/svg">
<path d="M19.59 32.1666C19.7015 30.9529 20.0253 29.7682 20.5467 28.6666H5.92603C5.23689 28.6663 4.55445 28.8017 3.91765 29.0651C3.28086 29.3286 2.70219 29.7149 2.21468 30.2019C1.72717 30.689 1.34038 31.2673 1.07637 31.9039C0.81237 32.5405 0.676332 33.2228 0.676025 33.9119V35.2606C0.676025 37.3419 1.42269 39.3579 2.77603 40.9422C6.42303 45.2216 11.9904 47.3332 19.3334 47.3332C22.6304 47.3332 25.5704 46.9062 28.1394 46.0499L25.3044 43.2149C23.524 43.6256 21.536 43.8309 19.3334 43.8309C12.9447 43.8309 8.35736 42.0926 5.43369 38.6672C4.62122 37.7172 4.17443 36.5084 4.17369 35.2583V33.9096C4.17431 33.4459 4.35896 33.0013 4.68708 32.6737C5.0152 32.346 5.45997 32.1619 5.92369 32.1619H19.5877L19.59 32.1666ZM19.3334 0.673584C22.4276 0.673584 25.395 1.90275 27.5829 4.09067C29.7709 6.2786 31 9.24606 31 12.3403C31 15.4344 29.7709 18.4019 27.5829 20.5898C25.395 22.7778 22.4276 24.0069 19.3334 24.0069C16.2392 24.0069 13.2717 22.7778 11.0838 20.5898C8.89586 18.4019 7.66669 15.4344 7.66669 12.3403C7.66669 9.24606 8.89586 6.2786 11.0838 4.09067C13.2717 1.90275 16.2392 0.673584 19.3334 0.673584ZM19.3334 4.17358C17.1674 4.17358 15.0902 5.034 13.5587 6.56555C12.0271 8.09709 11.1667 10.1743 11.1667 12.3403C11.1667 14.5062 12.0271 16.5834 13.5587 18.115C15.0902 19.6465 17.1674 20.5069 19.3334 20.5069C21.4993 20.5069 23.5765 19.6465 25.1081 18.115C26.6396 16.5834 27.5 14.5062 27.5 12.3403C27.5 10.1743 26.6396 8.09709 25.1081 6.56555C23.5765 5.034 21.4993 4.17358 19.3334 4.17358ZM35.7694 49.6549C35.5396 49.6551 35.312 49.6098 35.0998 49.5217C34.8875 49.4336 34.6948 49.3044 34.5327 49.1416L24.245 38.8563C22.7421 37.3362 21.9019 35.2831 21.9079 33.1456C21.914 31.008 22.7658 28.9597 24.2773 27.4482C25.7888 25.9367 27.8371 25.0848 29.9747 25.0788C32.1122 25.0728 34.1653 25.913 35.6854 27.4159L35.7694 27.4999L35.8534 27.4159C37.3734 25.913 39.4265 25.0728 41.564 25.0788C43.7016 25.0848 45.7499 25.9367 47.2614 27.4482C48.7729 28.9597 49.6248 31.008 49.6308 33.1456C49.6369 35.2831 48.7966 37.3362 47.2937 38.8563L37.006 49.1416C36.8439 49.3044 36.6512 49.4336 36.439 49.5217C36.2267 49.6098 35.9992 49.6551 35.7694 49.6549Z" fill="#ED3237"/>
</svg>
