<svg width="268" height="48" viewBox="0 0 268 48" fill="none" xmlns="http://www.w3.org/2000/svg">
<path d="M243.673 10.5741H255.659C259.642 10.5974 262.617 11.5541 264.586 13.4443C266.553 15.3344 267.672 18.2879 267.94 22.3082C267.963 22.6616 267.983 23.0183 267.993 23.3716C268.007 23.725 268 24.0917 267.976 24.4717C267.926 26.2218 267.611 27.9286 267.028 29.5954C266.445 31.2622 265.424 32.6723 263.967 33.8323C262.777 34.7791 261.494 35.3791 260.124 35.6391C258.751 35.8992 257.31 36.0292 255.806 36.0292H243.673V10.5741ZM65.4984 36.0292H59.4282V10.5741H65.495V36.0292H65.4984ZM72.3055 10.5741H79.1628L89.7185 28.8653L89.4673 10.5741H94.9947V36.0292H88.7136L77.6185 16.7778L77.8698 36.0292H72.3055V10.5741ZM107.617 15.041H99.219V10.6107H121.761V15.041H113.289V36.0292H107.617V15.041ZM136.749 15.0044C134.735 15.0277 133.234 15.5544 132.24 16.5811C131.245 17.6079 130.689 19.068 130.568 20.9581L145.767 20.9215V25.3518H130.531C130.531 26.2485 130.635 27.1119 130.839 27.9386C131.047 28.7653 131.462 29.522 132.095 30.2088C132.652 30.8455 133.312 31.2422 134.075 31.3955C134.839 31.5489 135.62 31.6255 136.42 31.6255C136.471 31.6255 136.524 31.6255 136.584 31.6255C136.645 31.6255 136.698 31.6255 136.749 31.6255L145.767 31.5889V36.0192H136.494C135.017 36.0192 133.59 35.8892 132.223 35.6291C130.853 35.3691 129.563 34.7658 128.35 33.8224C126.896 32.6656 125.878 31.2522 125.295 29.5854C124.712 27.9186 124.397 26.2118 124.35 24.4617C124.327 24.0817 124.32 23.7183 124.334 23.3616C124.347 23.0083 124.364 22.6516 124.387 22.2982C124.655 18.2813 125.774 15.3277 127.751 13.4343C129.727 11.5441 132.688 10.5974 136.641 10.5974L145.767 10.5607V14.991H136.749V15.0044ZM152.185 10.5741H165.709C165.974 10.5974 166.235 10.6107 166.49 10.6107C166.744 10.6107 167.005 10.6241 167.27 10.6474C168.265 10.6941 169.24 10.8474 170.198 11.1074C171.156 11.3675 171.997 11.8508 172.724 12.5609C173.377 13.1742 173.869 13.8976 174.194 14.7243C174.523 15.5511 174.72 16.4011 174.794 17.2779C174.794 17.4446 174.801 17.6079 174.811 17.7746C174.824 17.9412 174.828 18.1046 174.828 18.2713C174.851 20.0447 174.436 21.5748 173.575 22.8616C172.714 24.1483 171.374 25.0051 169.558 25.4318L176.064 36.0325H169.883L164.138 26.0351H157.666V36.0325H152.178V10.5741H152.185ZM164.282 15.1111H157.93V21.5282H164.282C164.329 21.5515 164.372 21.5648 164.419 21.5648C164.466 21.5648 164.51 21.5648 164.557 21.5648C165.655 21.5648 166.657 21.3948 167.561 21.0515C168.466 20.7081 168.905 19.8047 168.885 18.3379C168.885 16.8245 168.409 15.9144 167.458 15.6078C166.506 15.3011 165.448 15.1477 164.282 15.1477V15.1111ZM181.058 10.5741H189.139L195.798 30.1088L202.458 10.5741H210.501V36.0292H205.114L205.55 16.2111L198.853 36.0292H193.031L186.117 15.9978L186.663 36.0292H181.058V10.5741ZM228.266 15.0044C226.253 15.0277 224.752 15.5544 223.757 16.5811C222.762 17.6079 222.206 19.068 222.085 20.9581L237.288 20.9215V25.3518H222.049C222.049 26.2485 222.152 27.1119 222.357 27.9386C222.564 28.7653 222.98 29.522 223.613 30.2088C224.169 30.8455 224.832 31.2422 225.596 31.3955C226.36 31.5489 227.14 31.6255 227.941 31.6255C227.991 31.6255 228.045 31.6255 228.105 31.6255C228.166 31.6255 228.219 31.6255 228.269 31.6255L237.288 31.5889V36.0192H228.015C226.537 36.0192 225.11 35.8892 223.74 35.6291C222.37 35.3691 221.08 34.7658 219.868 33.8224C218.414 32.6656 217.395 31.2522 216.813 29.5854C216.23 27.9186 215.915 26.2118 215.868 24.4617C215.844 24.0817 215.838 23.7183 215.851 23.3616C215.865 23.0083 215.881 22.6516 215.905 22.2982C216.173 18.2813 217.292 15.3277 219.268 13.4343C221.245 11.5441 224.209 10.5974 228.159 10.5974L237.288 10.5607V14.991H228.266V15.0044ZM255.548 15.0044H249.173V31.5955H255.548C255.598 31.6189 255.652 31.6322 255.712 31.6322C255.773 31.6322 255.826 31.6322 255.876 31.6322C256.677 31.6322 257.461 31.5555 258.228 31.4022C258.992 31.2488 259.669 30.8521 260.251 30.2154C260.834 29.5521 261.24 28.8087 261.471 27.9819C261.702 27.1552 261.853 26.3152 261.926 25.4651C261.95 25.1117 261.963 24.7551 261.963 24.4017C261.963 24.0483 261.963 23.6916 261.963 23.3383C261.963 22.9849 261.963 22.6116 261.963 22.2215C261.963 21.8315 261.94 21.4482 261.89 21.0681C261.843 20.2414 261.702 19.4247 261.471 18.6213C261.24 17.8179 260.834 17.1078 260.251 16.4945C259.669 15.8578 258.995 15.4544 258.228 15.2877C257.464 15.121 256.68 15.041 255.876 15.041C255.826 15.041 255.773 15.041 255.712 15.041C255.652 15.041 255.598 15.041 255.548 15.041V15.0044Z" fill="#1C1C1E"/>
<path d="M233.837 47.8967V42.0762H234.983L237.388 45.9765V42.0762H238.483V47.8967H237.301L234.932 44.0697V47.8967H233.837ZM88.5728 47.8967V42.0762H89.7587V47.8967H88.5728ZM102.84 47.8967V42.0762H103.986L106.391 45.9765V42.0762H107.487V47.8967H106.304L103.932 44.0697V47.8967H102.84ZM120.428 47.8967V42.0762H121.573L123.979 45.9765V42.0762H125.074V47.8967H123.891L121.52 44.0697V47.8967H120.428ZM135.74 45.0231C135.74 44.4298 135.831 43.9297 136.008 43.5264C136.139 43.2297 136.323 42.963 136.551 42.7263C136.782 42.4896 137.033 42.3163 137.308 42.1996C137.673 42.0463 138.092 41.9696 138.571 41.9696C139.435 41.9696 140.122 42.2363 140.641 42.7696C141.157 43.303 141.418 44.043 141.418 44.9931C141.418 45.9365 141.16 46.6732 140.648 47.2033C140.135 47.7366 139.449 48 138.588 48C137.717 48 137.027 47.7366 136.511 47.2066C135.998 46.6799 135.74 45.9532 135.74 45.0231ZM136.956 44.9831C136.956 45.6432 137.11 46.1432 137.415 46.4832C137.72 46.8233 138.112 46.9933 138.581 46.9933C139.053 46.9933 139.439 46.8233 139.743 46.4866C140.045 46.1465 140.196 45.6398 140.196 44.9665C140.196 44.2997 140.048 43.7997 139.753 43.473C139.459 43.143 139.07 42.9796 138.581 42.9796C138.095 42.9796 137.7 43.1463 137.402 43.4797C137.107 43.8097 136.956 44.3131 136.956 44.9831ZM153.599 47.8967L151.505 42.0762H152.785L154.269 46.3832L155.696 42.0762H156.952L154.872 47.8967H153.599ZM174.124 47.8967H172.848L172.342 46.5699H169.997L169.511 47.8967H168.258L170.53 42.0762H171.782L174.124 47.8967ZM171.96 45.5898L171.146 43.4363L170.355 45.5898H171.96ZM186.596 47.8967V43.0597H184.864V42.0762H189.504V43.0597H187.778V47.8967H186.596ZM201.979 47.8967V42.0762H203.165V47.8967H201.979ZM215.416 45.0231C215.416 44.4298 215.506 43.9297 215.684 43.5264C215.814 43.2297 215.999 42.963 216.226 42.7263C216.457 42.4896 216.709 42.3163 216.983 42.1996C217.349 42.0463 217.767 41.9696 218.246 41.9696C219.111 41.9696 219.797 42.2363 220.317 42.7696C220.832 43.303 221.094 44.043 221.094 44.9931C221.094 45.9365 220.836 46.6732 220.323 47.2033C219.811 47.7366 219.124 48 218.263 48C217.392 48 216.702 47.7366 216.186 47.2066C215.674 46.6799 215.416 45.9532 215.416 45.0231ZM216.632 44.9831C216.632 45.6432 216.786 46.1432 217.091 46.4832C217.395 46.8233 217.787 46.9933 218.256 46.9933C218.729 46.9933 219.114 46.8233 219.419 46.4866C219.72 46.1465 219.871 45.6398 219.871 44.9665C219.871 44.2997 219.724 43.7997 219.429 43.473C219.134 43.143 218.745 42.9796 218.256 42.9796C217.771 42.9796 217.375 43.1463 217.077 43.4797C216.782 43.8097 216.632 44.3131 216.632 44.9831Z" fill="#ED3237"/>
<path fill-rule="evenodd" clip-rule="evenodd" d="M29.1446 0.0966762L26.8867 22.0249L47.4789 13.1476L30.7425 16.6878L29.1446 0.0966762ZM13.909 46.7833L25.1247 27.7719L36.4509 47.0499L25.061 34.3457L13.909 46.7833ZM42.7823 41.8729L28.1061 25.3584L50.0383 20.6348L34.3639 27.4619L42.7823 41.8729ZM7.25601 41.9829L21.9322 25.4684L0 20.7448L15.6744 27.5719L7.25601 41.9829ZM21.0042 0L23.2621 21.9282L2.66992 13.0509L19.4063 16.5912L21.0042 0Z" fill="#ED3237"/>
</svg>
