<svg width="15" height="18" viewBox="0 0 15 18" fill="none" xmlns="http://www.w3.org/2000/svg">
<g clip-path="url(#clip0_384_2144)">
<path d="M2.41591 0.426769C2.80241 0.381001 3.20334 0.464704 3.53719 0.66298C3.87942 0.86356 4.15008 1.18071 4.29169 1.54854C4.44216 1.93373 4.44883 2.37129 4.31095 2.76093C4.17399 3.1538 3.89091 3.49414 3.52818 3.70378C3.18424 3.90575 2.7698 3.9853 2.37414 3.9294C1.94992 3.87226 1.55085 3.65556 1.27228 3.33426C1.00784 3.03339 0.852406 2.64144 0.839673 2.2429C0.823213 1.82469 0.964362 1.40279 1.23036 1.0772C1.51902 0.71781 1.95458 0.477605 2.41591 0.426769Z" fill="#FF8A00"/>
<path d="M0.908203 4.70703C2.05215 4.70703 3.19594 4.70703 4.33988 4.70703C4.33895 4.84848 4.34407 4.99009 4.3315 5.13108C3.50354 5.4966 2.74143 6.01833 2.1287 6.6815C1.63305 7.21782 1.2405 7.85212 1.01364 8.54478C0.978545 8.54877 0.943296 8.55338 0.908203 8.55829C0.908203 7.27449 0.908203 5.99084 0.908203 4.70703Z" fill="#FF8A00"/>
<path d="M6.72687 4.86172C7.10684 4.81657 7.49069 4.79538 7.87299 4.82271C9.22392 4.90672 10.5565 5.37178 11.6359 6.185C11.7166 6.24858 11.8027 6.30556 11.8837 6.36899C12.3561 6.73068 12.7607 7.18038 13.061 7.69166C13.146 7.84232 13.2412 7.987 13.3219 8.13997C13.6744 8.7887 13.909 9.50087 14.0048 10.2315C14.0295 10.4046 14.0353 10.5793 14.0471 10.7537C14.1744 12.8974 14.0643 15.0445 14.0916 17.19C13.0177 17.19 11.9438 17.19 10.8697 17.19C10.8697 16.3184 10.8697 15.447 10.8697 14.5754C10.8711 13.649 10.8668 12.7221 10.8722 11.796C10.8572 11.0144 10.5989 10.2477 10.1842 9.58611C9.70374 8.83939 8.90358 8.2808 8.01073 8.1541C7.31538 8.06179 6.57315 8.15041 5.96554 8.51486C5.48697 8.77903 5.09163 9.17635 4.80218 9.63418C4.42439 10.2319 4.20917 10.9241 4.14675 11.6245C4.14535 13.4796 4.14659 15.3349 4.14613 17.19C3.07206 17.19 1.99815 17.19 0.924234 17.19C0.931533 16.7947 0.926564 16.3991 0.927961 16.0038C0.917402 14.7547 0.897837 13.5053 0.913675 12.2562C0.924079 11.6963 0.94116 11.1364 0.975942 10.5773C1.0452 9.56154 1.39364 8.57169 1.94411 7.71377C2.29069 7.08608 2.82377 6.58079 3.4042 6.16411C3.74566 5.91807 4.10467 5.69445 4.48526 5.51215C5.18836 5.17242 5.95063 4.95572 6.72687 4.86172Z" fill="#242424"/>
</g>
<defs>
<clipPath id="clip0_384_2144">
<rect width="15" height="18" fill="white"/>
</clipPath>
</defs>
</svg>
