<svg width="55" height="46" viewBox="0 0 55 46" fill="none" xmlns="http://www.w3.org/2000/svg">
<path d="M32.2 3.79998C35.1922 3.80074 38.1428 4.50086 40.8164 5.84446C43.49 7.18807 45.8126 9.13797 47.5988 11.5386C49.385 13.9392 50.5854 16.724 51.1042 19.6709C51.623 22.6179 51.4459 25.6452 50.587 28.5115C49.728 31.3778 48.211 34.0037 46.157 36.1796C44.103 38.3555 41.5689 40.0212 38.7569 41.0439C35.9448 42.0665 32.9327 42.4177 29.9608 42.0695C26.9888 41.7213 24.1395 40.6833 21.64 39.0384V39H21.5824C18.1449 36.7198 15.5331 33.3932 14.1339 29.5128C12.7347 25.6324 12.6224 21.4045 13.8136 17.4553C15.0048 13.5061 17.4362 10.0455 20.7478 7.58605C24.0594 5.12659 28.075 3.79903 32.2 3.79998ZM13.816 35.8C14.616 36.952 15.5248 38.0208 16.5232 39H1.79995C1.3756 39 0.968639 39.1685 0.66858 39.4686C0.368522 39.7687 0.199951 40.1756 0.199951 40.6C0.199951 41.0243 0.368522 41.4313 0.66858 41.7313C0.968639 42.0314 1.3756 42.2 1.79995 42.2H20.6544C24.0531 44.2424 27.9332 45.346 31.8981 45.398C35.863 45.4501 39.7707 44.4487 43.2219 42.4962C46.6732 40.5437 49.5443 37.7101 51.5419 34.2847C53.5395 30.8594 54.5921 26.9652 54.5921 23C54.5921 19.0347 53.5395 15.1405 51.5419 11.7152C49.5443 8.2899 46.6732 5.45625 43.2219 3.50375C39.7707 1.55124 35.863 0.549861 31.8981 0.601906C27.9332 0.65395 24.0531 1.75755 20.6544 3.79998H4.99995C4.57561 3.79998 4.16864 3.96855 3.86858 4.26861C3.56852 4.56866 3.39995 4.97563 3.39995 5.39998C3.39995 5.82432 3.56852 6.23129 3.86858 6.53135C4.16864 6.8314 4.57561 6.99998 4.99995 6.99998H16.5232C14.3915 9.08331 12.6984 11.5723 11.5438 14.3202C10.3891 17.0681 9.79617 20.0193 9.79995 23C9.79995 26.4368 10.5744 29.688 11.9568 32.6H8.19995C7.77561 32.6 7.36864 32.7685 7.06858 33.0686C6.76852 33.3687 6.59995 33.7756 6.59995 34.2C6.59995 34.6243 6.76852 35.0313 7.06858 35.3313C7.36864 35.6314 7.77561 35.8 8.19995 35.8H13.816ZM23.2304 16.2928C21.7791 18.2274 20.9963 20.5815 21 23C21 25.5152 21.832 27.8384 23.2304 29.7072L26.6864 26.2512C26.1044 25.2666 25.7983 24.1436 25.8 23C25.8 21.816 26.1232 20.7024 26.6864 19.7488L23.2304 16.2928ZM25.4928 14.0304L28.9488 17.4864C29.9332 16.9043 31.0563 16.5981 32.2 16.6C33.384 16.6 34.4976 16.9232 35.4512 17.4864L38.9072 14.0304C36.9725 12.5791 34.6184 11.7963 32.2 11.8C29.6848 11.8 27.3616 12.632 25.4928 14.0304ZM41.1728 16.2928L37.7168 19.7488C38.2972 20.7341 38.603 21.8569 38.6025 23.0004C38.6019 24.144 38.295 25.2665 37.7136 26.2512L41.1696 29.7072C42.5712 27.8384 43.4 25.5152 43.4 23C43.4 20.4848 42.568 18.1616 41.1696 16.2928H41.1728ZM38.9072 31.9728L35.4512 28.5168C34.4663 29.0976 33.3433 29.4026 32.2 29.4C31.016 29.4 29.9024 29.0768 28.9488 28.5136L25.4928 31.9696C27.3616 33.3712 29.6848 34.2 32.2 34.2C34.7152 34.2 37.0384 33.368 38.9072 31.9696V31.9728ZM17.8 23C17.8 21.1089 18.1724 19.2364 18.8961 17.4893C19.6198 15.7422 20.6805 14.1548 22.0176 12.8176C23.3548 11.4805 24.9422 10.4198 26.6893 9.69611C28.4364 8.97244 30.3089 8.59998 32.2 8.59998C34.091 8.59998 35.9635 8.97244 37.7106 9.69611C39.4577 10.4198 41.0451 11.4805 42.3823 12.8176C43.7195 14.1548 44.7802 15.7422 45.5038 17.4893C46.2275 19.2364 46.6 21.1089 46.6 23C46.6 26.8191 45.0828 30.4818 42.3823 33.1823C39.6818 35.8828 36.0191 37.4 32.2 37.4C28.3808 37.4 24.7181 35.8828 22.0176 33.1823C19.3171 30.4818 17.8 26.8191 17.8 23ZM29 23C29 23.8487 29.3371 24.6626 29.9372 25.2627C30.5373 25.8628 31.3513 26.2 32.2 26.2C33.0486 26.2 33.8626 25.8628 34.4627 25.2627C35.0628 24.6626 35.4 23.8487 35.4 23C35.4 22.1513 35.0628 21.3374 34.4627 20.7372C33.8626 20.1371 33.0486 19.8 32.2 19.8C31.3513 19.8 30.5373 20.1371 29.9372 20.7372C29.3371 21.3374 29 22.1513 29 23Z" fill="#ED3237"/>
</svg>
