<svg width="441" height="323" viewBox="0 0 441 323" fill="none" xmlns="http://www.w3.org/2000/svg">
<g clip-path="url(#clip0_98_1799)">
<path d="M429.499 140.084C429.622 138.21 425.199 137.295 425.4 135.656C425.6 134.022 430.062 134.361 434.778 131.41C435.628 130.878 440.988 127.524 440.465 125.008C439.475 120.239 418.223 122.673 416.155 115.735C415.701 114.212 416.122 112.076 414.871 107.29C414.373 105.386 413.959 104.398 413.115 104.086C411.917 103.644 410.898 104.95 407.957 106.878C403.546 109.771 402.74 108.867 399.575 111.416C397.226 113.308 396.436 114.8 395.413 114.499C393.966 114.074 394.612 110.811 392.955 110.014C391.264 109.201 388.315 111.506 386.508 113.504C383.117 117.254 382.765 121.013 381.638 124.449C380.413 128.183 377.699 133.283 370.965 138.535L309.501 183C322.44 174.098 358.624 150.182 372.721 141.738C376.791 139.301 381.065 136.928 385.731 138.019C390.224 139.07 394.538 143.205 401.781 145.949C402.627 146.269 404.993 147.131 406.058 146.126C406.939 145.295 406.128 143.945 406.939 143.157C408.026 142.099 410.367 143.671 414.204 144.209C416.909 144.589 418.983 144.261 420.766 143.98C421.304 143.895 429.335 142.578 429.499 140.084L429.499 140.084Z" fill="#F2F2F2"/>
<path d="M326.083 115.791C325.207 115.187 323.505 117.089 322.764 116.515C322.026 115.944 323.459 113.857 323.364 110.692C323.347 110.121 323.239 106.525 321.866 106.052C319.265 105.155 314.409 116.269 310.446 115.272C309.576 115.053 308.657 114.228 305.973 113.454C304.905 113.147 304.307 113.063 303.915 113.386C303.36 113.845 303.705 114.722 303.808 116.721C303.961 119.72 303.292 119.853 303.633 122.141C303.885 123.84 304.387 124.659 303.95 125.073C303.331 125.659 301.928 124.397 301.069 124.978C300.193 125.571 300.476 127.683 300.935 129.147C301.795 131.894 303.524 133.155 304.875 134.703C306.343 136.385 308.053 139.192 308.694 144.012L312.855 187C312.202 178.083 310.852 153.431 310.751 144.08C310.722 141.38 310.783 138.599 312.64 136.63C314.428 134.734 317.665 133.819 321.058 131.066C321.455 130.745 322.546 129.836 322.36 129.023C322.206 128.35 321.319 128.356 321.166 127.731C320.961 126.892 322.391 126.201 323.743 124.477C324.696 123.262 325.127 122.152 325.497 121.197C325.608 120.909 327.25 116.593 326.083 115.79L326.083 115.791V115.791Z" fill="#F2F2F2"/>
<path d="M340.5 131.52L343.209 126.229L343.697 126.029C345.952 125.104 347.632 123.828 348.691 122.236C348.86 121.983 349.016 121.721 349.175 121.454C349.805 120.396 350.588 119.082 352.206 118.051C353.11 117.479 355.381 116.278 356.739 117.593C357.107 117.942 357.287 118.356 357.371 118.75C357.443 118.718 357.516 118.686 357.594 118.651C358.558 118.239 359.143 118.185 359.706 118.132C360.139 118.092 360.585 118.05 361.414 117.79C361.778 117.676 362.078 117.562 362.331 117.466C363.096 117.178 364.053 116.865 364.947 117.519C365.88 118.252 365.839 119.44 365.812 120.226C365.765 121.628 365.571 122.526 365.442 123.121C365.394 123.338 365.342 123.583 365.34 123.669C365.338 124.364 368.155 125.717 369.212 126.233C371.593 127.383 373.652 128.378 373.491 130.32C373.377 131.709 372.099 132.745 369.587 133.477C368.804 133.705 368.079 133.785 367.463 133.813C367.662 134.262 367.752 134.797 367.543 135.387C367.046 136.782 365.274 137.275 362.274 136.855C361.528 136.753 360.526 136.611 359.358 136.055C358.808 135.793 358.351 135.499 357.964 135.241C357.806 135.463 357.592 135.674 357.291 135.832C356.407 136.301 355.357 136.077 354.185 135.117C352.881 134.081 351.945 133.021 351.118 132.088C350.395 131.273 349.77 130.574 349.164 130.202C348.029 129.527 346.61 129.831 344.873 130.299L340.5 131.52L340.5 131.52Z" fill="#F2F2F2"/>
<path d="M363.205 105L357.494 103.656L357.178 103.229C355.72 101.251 354.077 99.9237 352.296 99.2806C352.013 99.1783 351.724 99.0904 351.431 99.0007C350.266 98.6456 348.819 98.2046 347.425 96.8762C346.649 96.1332 344.926 94.2088 345.821 92.5567C346.057 92.1101 346.402 91.8319 346.754 91.6525C346.705 91.5903 346.656 91.5269 346.603 91.4589C345.964 90.6175 345.761 90.0595 345.566 89.5218C345.416 89.1087 345.262 88.6822 344.801 87.9356C344.599 87.6081 344.413 87.3428 344.258 87.1194C343.787 86.4421 343.244 85.583 343.633 84.5472C344.087 83.4545 345.222 83.2017 345.973 83.0338C347.314 82.7339 348.214 82.7021 348.811 82.6812C349.029 82.6741 349.274 82.6649 349.356 82.6451C350.016 82.4756 350.57 79.387 350.786 78.2257C351.261 75.6141 351.672 73.3543 353.553 73.0327C354.899 72.8014 356.21 73.7957 357.552 76.0719C357.969 76.7808 358.232 77.4703 358.418 78.0657C358.791 77.7603 359.275 77.54 359.888 77.5992C361.338 77.7411 362.262 79.3525 362.639 82.3892C362.734 83.1441 362.859 84.159 362.634 85.4387C362.527 86.0413 362.367 86.5608 362.222 87.0028C362.474 87.1027 362.728 87.2601 362.956 87.5152C363.628 88.2643 363.687 89.3463 363.08 90.7295C362.436 92.2597 361.673 93.4372 361.002 94.4765C360.417 95.3845 359.916 96.1677 359.72 96.8529C359.373 98.1295 360.028 99.4415 360.92 101.025L363.205 105L363.205 105V105Z" fill="#F2F2F2"/>
<path d="M370.5 89.5202L373.209 84.2294L373.697 84.0292C375.952 83.1037 377.632 81.8277 378.691 80.2358C378.86 79.9827 379.016 79.7207 379.175 79.454C379.805 78.3965 380.588 77.0818 382.206 76.0515C383.11 75.4786 385.381 74.2781 386.739 75.5928C387.107 75.9422 387.287 76.3561 387.371 76.7504C387.443 76.7179 387.516 76.6861 387.594 76.6512C388.558 76.2394 389.143 76.1848 389.706 76.1323C390.139 76.0916 390.585 76.0504 391.414 75.79C391.778 75.6759 392.078 75.5617 392.331 75.4661C393.096 75.1777 394.053 74.8655 394.947 75.5193C395.88 76.2525 395.839 77.4397 395.812 78.2258C395.765 79.6283 395.571 80.5256 395.442 81.1205C395.394 81.3377 395.342 81.5827 395.34 81.6688C395.338 82.3644 398.155 83.7172 399.212 84.2326C401.593 85.3827 403.652 86.3779 403.491 88.3197C403.377 89.7094 402.099 90.7449 399.587 91.4772C398.804 91.7047 398.079 91.7846 397.463 91.8133C397.662 92.2618 397.752 92.7966 397.543 93.3866C397.046 94.7824 395.274 95.2746 392.274 94.8551C391.528 94.7529 390.526 94.6115 389.358 94.0554C388.808 93.793 388.351 93.4991 387.964 93.2413C387.806 93.4633 387.592 93.6735 387.291 93.8323C386.407 94.301 385.357 94.0768 384.185 93.1171C382.881 92.0815 381.945 91.0212 381.118 90.0875C380.395 89.2733 379.77 88.5744 379.164 88.2019C378.029 87.5267 376.61 87.8313 374.873 88.2993L370.5 89.5203V89.5202H370.5Z" fill="#F2F2F2"/>
<path d="M311.32 185L310.752 183.69L311.298 182.371L310.752 183.69L309.5 183.025C309.555 182.905 309.662 182.613 309.832 182.158C310.768 179.669 313.611 172.094 319.262 160.97C323.208 153.205 327.69 145.515 332.586 138.109C337.49 130.692 341.63 125.371 344.957 121.094C347.467 117.868 349.912 114.834 352.296 111.88C358.661 103.986 364.673 96.5283 370.166 87.474C371.394 85.4534 373.947 81.2461 374.532 75.3038C374.87 71.8573 374.5 68.3362 373.429 64.8403L376.152 64C377.333 67.8618 377.74 71.7603 377.365 75.5871C376.716 82.1755 373.935 86.7599 372.598 88.9626C367.007 98.1766 360.936 105.705 354.509 113.675C352.136 116.619 349.701 119.64 347.201 122.852C343.905 127.09 339.801 132.365 334.96 139.687C330.121 147.003 325.695 154.6 321.798 162.267C316.219 173.251 313.418 180.714 312.498 183.165C312.006 184.474 311.903 184.748 311.32 185V185V185Z" fill="#F2F2F2"/>
<path d="M366.844 65.606C366.748 65.5394 366.653 65.4697 366.559 65.3945C364.642 63.902 363.614 61.4114 363.504 57.9925C363.455 56.3859 363.884 54.8905 364.74 51.9083C364.871 51.4481 365.563 49.1312 366.97 46.2604C367.89 44.3841 368.403 43.6889 369.164 43.2889C370.011 42.8425 370.943 42.7687 371.842 42.907C371.966 42.6594 372.148 42.4421 372.406 42.2709C373.472 41.5585 374.444 42.4245 374.975 42.8853C375.24 43.1239 375.569 43.424 375.973 43.6745C376.608 44.0712 377.063 44.1151 377.751 44.1846C378.409 44.2506 379.227 44.3327 380.233 44.7629C382.222 45.6036 383.342 47.1171 383.711 47.6156C385.663 50.2277 385.563 53.0887 385.447 56.4012C385.422 57.0644 385.271 59.4372 384.362 62.2022C383.707 64.1971 383.14 64.8924 382.626 65.3454C381.574 66.2783 380.457 66.455 377.765 66.6879C374.952 66.9349 373.541 67.0572 372.457 66.9741C369.935 66.7769 368.351 66.6532 366.844 65.606L366.844 65.606V65.606Z" fill="#F2F2F2"/>
<path d="M354.875 0H195.125C189.265 0 184.5 4.76449 184.5 10.6238V175.376C184.5 181.235 189.265 186 195.125 186H354.875C360.735 186 365.5 181.235 365.5 175.376V10.6238C365.5 4.76449 360.735 0 354.875 0ZM364.383 175.376C364.383 180.627 360.126 184.883 354.875 184.883H195.125C189.874 184.883 185.617 180.627 185.617 175.376V10.6238C185.617 5.37339 189.874 1.11712 195.125 1.11712H279.744C326.489 1.11712 364.383 39.0055 364.383 85.7431V175.376Z" fill="#3F3D56"/>
<path d="M182.099 124.237C176.464 125.784 172.682 129.992 173.652 133.635C174.622 137.278 179.976 138.975 185.613 137.427C187.873 136.84 189.962 135.711 191.704 134.136L215.5 127.274L212.092 116L188.996 123.962C186.708 123.493 184.343 123.587 182.099 124.237Z" fill="#FFB6B6"/>
<path d="M281.023 90.8469C281.023 90.8469 287.705 100.672 272.645 108.084C257.584 115.496 229.744 126.074 229.744 126.074L191.305 135L185.5 122.245L231.112 109.789L268.28 89L281.023 90.8469H281.023Z" fill="#3F3D56"/>
<path d="M276.506 65.061C276.337 69.6913 279.646 75.1878 283.144 75.3006C287.352 75.4364 307.246 76.8639 307.885 75.2015C312.326 63.6595 291.414 39.7168 286.7 39.0261C284.167 38.6549 281.134 42.3192 279.968 45.3442C278.333 49.5833 280.745 51.5824 279.384 57.2933C278.346 61.6482 276.624 61.824 276.506 65.061Z" fill="#2F2E41"/>
<path d="M241.171 248L227.5 251.212L241.236 293L250.5 290.824L241.171 248Z" fill="#FFB6B6"/>
<path d="M236.829 279.586L242.29 280.4L243.131 283.372C243.131 283.372 243.313 279.591 249.344 277L250.912 279.66C250.912 279.66 254.14 281.771 255.183 287.004L257.5 301.157L252.759 302.435L249.28 293.137C249.28 293.137 247.366 291.359 244.321 303.388C244.321 303.388 243.088 307.431 231.902 306.962C230.365 306.898 229.012 305.856 228.602 304.348C228.376 303.517 228.476 302.657 229.42 302.081C231.823 300.614 234.618 300.752 235.696 298.145C236.774 295.538 236.829 279.586 236.829 279.586Z" fill="#2F2E41"/>
<path d="M272.5 267.315L259.5 267L261.32 311.823L271.439 312L272.5 267.315Z" fill="#FFB6B6"/>
<path d="M259.386 297L264.507 299.071L264.62 302.083C264.62 302.083 265.695 298.55 272.179 297.537L273.073 300.427C273.073 300.427 275.713 303.193 275.486 308.39L274.38 322.329L269.463 322.408L268.285 312.785C268.285 312.785 266.845 310.646 261.026 321.298C261.026 321.298 258.866 324.828 248.092 321.72C246.612 321.292 245.543 319.984 245.501 318.461C245.478 317.62 245.78 316.831 246.835 316.511C249.522 315.697 252.209 316.493 253.877 314.284C255.546 312.075 259.386 297 259.386 297Z" fill="#2F2E41"/>
<path d="M298.5 218L231.5 212.873L250.355 136.428L295.465 130L298.5 218Z" fill="#2F2E41"/>
<path d="M288.303 77.5311L302.243 70L313.5 83.4784L290.879 157L249.5 138.42L280.929 83.9345L288.303 77.5311Z" fill="#ED3237"/>
<path d="M290.81 142.274C290.81 142.274 295.29 165.347 281.419 177.339L277.173 190.824L272.589 215.714L273.004 280L256.204 278.322L249.483 216.786L249.404 186.16L224.601 207.378L250.558 258.308L229.408 267.56L203.575 206.185C201.781 202.446 202.259 198.015 204.811 194.745L249.874 137L290.81 142.274Z" fill="#2F2E41"/>
<path d="M308.01 76L280.504 101.664C273.994 154.493 277.547 203.004 296.278 245L342.5 223.575C304.386 212.014 308.124 148.534 315.519 80.5175L308.01 76Z" fill="#3F3D56"/>
<path d="M284.259 83.5427L288.5 77L265.046 90.7499L246.5 142L280.712 99.4264L284.259 83.5427Z" fill="#3F3D56"/>
<path d="M343.065 179.729C344.674 185.215 348.844 188.842 352.38 187.831C355.915 186.819 357.476 181.552 355.866 176.064C355.253 173.863 354.115 171.839 352.548 170.161L345.434 147L334.5 150.528L342.674 172.986C342.257 175.232 342.391 177.544 343.065 179.729Z" fill="#FFB6B6"/>
<path d="M306.973 80.6273C306.973 80.6273 316.562 73.6813 324.373 88.4902C332.183 103.299 343.512 130.763 343.512 130.763L353.5 168.846L340.969 175L327.261 129.865L305.5 93.3896L306.973 80.6273Z" fill="#3F3D56"/>
<path d="M296 69C304.56 69 311.5 62.0604 311.5 53.5C311.5 44.9396 304.56 38 296 38C287.44 38 280.5 44.9396 280.5 53.5C280.5 62.0604 287.44 69 296 69Z" fill="#FFB6B6"/>
<path d="M295.826 47.4346C294.943 47.3486 294.49 48.27 291.119 49.5555C289.925 50.011 289.313 50.2396 288.612 50.2841C286.48 50.4193 284.823 49.2567 283.716 48.4797C281.915 47.2167 280.756 46.4031 280.529 45.1025C280.234 43.4051 282.18 41.509 286.085 37.7862C287.997 35.963 289.162 34.8617 291.033 33.551C294.171 31.3525 295.74 30.2533 297.94 30.0376C300.853 29.752 303.068 31.1245 306.264 33.1051C307.127 33.6401 308.372 33.8974 309.692 33.9955C314.012 34.3165 317.716 37.1594 318.891 41.2765C318.981 41.591 319.056 41.8758 319.113 42.1196C321.432 52.1161 320.785 62.5135 317.611 72.2785C317.525 72.5414 317.454 72.7861 317.398 73.0092C315.924 78.9561 295.671 81.2743 293.302 76.2468C291.81 73.081 298.781 69.9134 299.823 60.4738C300.547 53.9022 298.028 47.6489 295.826 47.4346V47.4346Z" fill="#2F2E41"/>
<path d="M234.5 51H65.5V52H234.5V51Z" fill="#E6E6E6"/>
<path d="M211.041 38H89.9595C88.0519 38 86.5 36.4299 86.5 34.5C86.5 32.5701 88.0519 31 89.9595 31H211.041C212.948 31 214.5 32.5701 214.5 34.5C214.5 36.4299 212.948 38 211.041 38Z" fill="#E6E6E6"/>
<path d="M67 59C71.1421 59 74.5 55.6421 74.5 51.5C74.5 47.3579 71.1421 44 67 44C62.8579 44 59.5 47.3579 59.5 51.5C59.5 55.6421 62.8579 59 67 59Z" fill="#E6E6E6"/>
<path d="M89 43C93.1421 43 96.5 39.6421 96.5 35.5C96.5 31.3579 93.1421 28 89 28C84.8579 28 81.5 31.3579 81.5 35.5C81.5 39.6421 84.8579 43 89 43Z" fill="#E6E6E6"/>
<path d="M177.5 132H8.5V133H177.5V132Z" fill="#3F3D56"/>
<path d="M154.041 119H32.9595C31.0519 119 29.5 117.43 29.5 115.5C29.5 113.57 31.0519 112 32.9595 112H154.041C155.948 112 157.5 113.57 157.5 115.5C157.5 117.43 155.948 119 154.041 119Z" fill="#ED3237"/>
<path d="M8 140C12.1421 140 15.5 136.642 15.5 132.5C15.5 128.358 12.1421 125 8 125C3.85786 125 0.5 128.358 0.5 132.5C0.5 136.642 3.85786 140 8 140Z" fill="#ED3237"/>
<path d="M30 124C34.1421 124 37.5 120.642 37.5 116.5C37.5 112.358 34.1421 109 30 109C25.8579 109 22.5 112.358 22.5 116.5C22.5 120.642 25.8579 124 30 124Z" fill="#ED3237"/>
<path d="M198.5 221H29.5V222H198.5V221Z" fill="#E6E6E6"/>
<path d="M174.041 209H52.9595C51.0519 209 49.5 207.43 49.5 205.5C49.5 203.57 51.0519 202 52.9595 202H174.041C175.948 202 177.5 203.57 177.5 205.5C177.5 207.43 175.948 209 174.041 209Z" fill="#E6E6E6"/>
<path d="M50 212C54.1421 212 57.5 208.642 57.5 204.5C57.5 200.358 54.1421 197 50 197C45.8579 197 42.5 200.358 42.5 204.5C42.5 208.642 45.8579 212 50 212Z" fill="#E6E6E6"/>
<path d="M28 229C32.1421 229 35.5 225.642 35.5 221.5C35.5 217.358 32.1421 214 28 214C23.8579 214 20.5 217.358 20.5 221.5C20.5 225.642 23.8579 229 28 229Z" fill="#E6E6E6"/>
</g>
<defs>
<clipPath id="clip0_98_1799">
<rect width="440" height="323" fill="white" transform="translate(0.5)"/>
</clipPath>
</defs>
</svg>
