<svg width="40" height="44" viewBox="0 0 40 44" fill="none" xmlns="http://www.w3.org/2000/svg">
<path d="M27.5 19V10C27.5 8.01088 26.7098 6.10322 25.3033 4.6967C23.8967 3.29018 21.9891 2.5 20 2.5C18.0108 2.5 16.1032 3.29018 14.6967 4.6967C13.2901 6.10322 12.5 8.01088 12.5 10V19M35.212 15.014L37.738 39.014C37.878 40.344 36.838 41.5 35.5 41.5H4.49997C4.18439 41.5003 3.87226 41.4343 3.58387 41.3061C3.29547 41.178 3.03727 40.9906 2.82602 40.7561C2.61477 40.5217 2.4552 40.2454 2.35768 39.9453C2.26016 39.6451 2.22687 39.3278 2.25997 39.014L4.78797 15.014C4.84628 14.4611 5.10722 13.9494 5.52047 13.5775C5.93372 13.2056 6.47002 12.9999 7.02597 13H32.974C34.126 13 35.092 13.87 35.212 15.014ZM13.25 19C13.25 19.1989 13.171 19.3897 13.0303 19.5303C12.8896 19.671 12.6989 19.75 12.5 19.75C12.3011 19.75 12.1103 19.671 11.9696 19.5303C11.829 19.3897 11.75 19.1989 11.75 19C11.75 18.8011 11.829 18.6103 11.9696 18.4697C12.1103 18.329 12.3011 18.25 12.5 18.25C12.6989 18.25 12.8896 18.329 13.0303 18.4697C13.171 18.6103 13.25 18.8011 13.25 19V19ZM28.25 19C28.25 19.1989 28.171 19.3897 28.0303 19.5303C27.8896 19.671 27.6989 19.75 27.5 19.75C27.3011 19.75 27.1103 19.671 26.9696 19.5303C26.829 19.3897 26.75 19.1989 26.75 19C26.75 18.8011 26.829 18.6103 26.9696 18.4697C27.1103 18.329 27.3011 18.25 27.5 18.25C27.6989 18.25 27.8896 18.329 28.0303 18.4697C28.171 18.6103 28.25 18.8011 28.25 19V19Z" stroke="#ED3237" stroke-width="3.5" stroke-linecap="round" stroke-linejoin="round"/>
</svg>
