<svg width="48" height="48" viewBox="0 0 48 48" fill="none" xmlns="http://www.w3.org/2000/svg">
<mask id="path-1-inside-1_318_563" fill="white">
<path d="M6.85714 32.5714C6.85714 31.6247 6.08963 30.8571 5.14286 30.8571C4.19608 30.8571 3.42857 31.6247 3.42857 32.5714C3.42857 35.754 4.69285 38.8063 6.94329 41.0567C9.19373 43.3071 12.246 44.5714 15.4286 44.5714H18.8571C19.8039 44.5714 20.5714 43.8039 20.5714 42.8571C20.5714 41.9104 19.8039 41.1429 18.8571 41.1429H15.4286C13.1553 41.1429 10.9751 40.2398 9.36766 38.6323C7.7602 37.0249 6.85714 34.8447 6.85714 32.5714ZM37.7143 15.4286C37.7143 16.3753 38.4818 17.1429 39.4286 17.1429C40.3753 17.1429 41.1429 16.3753 41.1429 15.4286C41.1429 12.246 39.8786 9.19373 37.6281 6.94329C35.3777 4.69286 32.3255 3.42857 29.1429 3.42857H25.7143C24.7675 3.42857 24 4.19609 24 5.14286C24 6.08963 24.7675 6.85715 25.7143 6.85715H29.1429C30.2685 6.85715 31.3831 7.07885 32.423 7.50961C33.4629 7.94036 34.4078 8.57173 35.2038 9.36766C35.9997 10.1636 36.6311 11.1085 37.0618 12.1484C37.4926 13.1884 37.7143 14.303 37.7143 15.4286ZM15.4286 15.4286H5.14286C3.77889 15.4286 2.47078 15.9704 1.50631 16.9349C0.541835 17.8994 0 19.2075 0 20.5714V22.2857C0 23.2325 0.767512 24 1.71429 24C2.66106 24 3.42857 23.2325 3.42857 22.2857V20.5714C3.42857 20.1168 3.60918 19.6807 3.93067 19.3592C4.25217 19.0378 4.6882 18.8571 5.14286 18.8571H15.4286C15.8832 18.8571 16.3193 19.0378 16.6408 19.3592C16.9622 19.6807 17.1429 20.1168 17.1429 20.5714V22.2857C17.1429 23.2325 17.9104 24 18.8571 24C19.8039 24 20.5714 23.2325 20.5714 22.2857V20.5714C20.5714 19.2075 20.0296 17.8994 19.0651 16.9349C18.1006 15.9704 16.7925 15.4286 15.4286 15.4286ZM10.2857 13.7143C11.6419 13.7143 12.9677 13.3121 14.0953 12.5587C15.223 11.8052 16.1019 10.7342 16.6209 9.48126C17.1399 8.22828 17.2757 6.84954 17.0111 5.51938C16.7465 4.18923 16.0934 2.9674 15.1344 2.00841C14.1755 1.04942 12.9536 0.396345 11.6235 0.131761C10.2933 -0.132823 8.91458 0.00297107 7.6616 0.521972C6.40862 1.04097 5.33768 1.91987 4.58421 3.04752C3.83074 4.17517 3.42857 5.50093 3.42857 6.85715C3.42857 8.67577 4.15102 10.4199 5.43698 11.7059C6.72295 12.9918 8.46709 13.7143 10.2857 13.7143ZM10.2857 3.42857C10.9638 3.42857 11.6267 3.62966 12.1905 4.00639C12.7544 4.38313 13.1938 4.9186 13.4533 5.54509C13.7128 6.17158 13.7807 6.86095 13.6484 7.52603C13.5161 8.1911 13.1896 8.80202 12.7101 9.28151C12.2306 9.76101 11.6197 10.0875 10.9546 10.2198C10.2895 10.3521 9.60015 10.2842 8.97366 10.0247C8.34717 9.76523 7.8117 9.32578 7.43496 8.76196C7.05823 8.19813 6.85714 7.53525 6.85714 6.85715C6.85714 5.94783 7.21837 5.07576 7.86135 4.43278C8.50433 3.7898 9.3764 3.42857 10.2857 3.42857ZM42.8571 39.4286H32.5714C31.2075 39.4286 29.8994 39.9704 28.9349 40.9349C27.9704 41.8994 27.4286 43.2075 27.4286 44.5714V46.2857C27.4286 47.2325 28.1961 48 29.1429 48C30.0896 48 30.8571 47.2325 30.8571 46.2857V44.5714C30.8571 44.1168 31.0378 43.6807 31.3592 43.3592C31.6807 43.0378 32.1168 42.8571 32.5714 42.8571H42.8571C43.3118 42.8571 43.7478 43.0378 44.0693 43.3592C44.3908 43.6807 44.5714 44.1168 44.5714 44.5714V46.2857C44.5714 47.2325 45.3389 48 46.2857 48C47.2325 48 48 47.2325 48 46.2857V44.5714C48 43.2075 47.4582 41.8994 46.4937 40.9349C45.5292 39.9704 44.2211 39.4286 42.8571 39.4286ZM30.8571 30.8571C30.8571 32.2134 31.2593 33.5391 32.0128 34.6668C32.7663 35.7944 33.8372 36.6733 35.0902 37.1923C36.3432 37.7113 37.7219 37.8471 39.052 37.5825C40.3822 37.3179 41.604 36.6649 42.563 35.7059C43.522 34.7469 44.1751 33.5251 44.4397 32.1949C44.7043 30.8648 44.5685 29.486 44.0495 28.233C43.5305 26.9801 42.6516 25.9091 41.5239 25.1556C40.3963 24.4022 39.0705 24 37.7143 24C35.8957 24 34.1515 24.7225 32.8656 26.0084C31.5796 27.2944 30.8571 29.0385 30.8571 30.8571ZM41.1429 30.8571C41.1429 31.5353 40.9418 32.1981 40.565 32.762C40.1883 33.3258 39.6528 33.7652 39.0263 34.0247C38.3999 34.2842 37.7105 34.3521 37.0454 34.2198C36.3803 34.0875 35.7694 33.761 35.2899 33.2815C34.8104 32.802 34.4839 32.1911 34.3516 31.526C34.2193 30.8609 34.2872 30.1716 34.5467 29.5451C34.8062 28.9186 35.2456 28.3831 35.8095 28.0064C36.3733 27.6297 37.0362 27.4286 37.7143 27.4286C38.6236 27.4286 39.4957 27.7898 40.1387 28.4328C40.7816 29.0758 41.1429 29.9478 41.1429 30.8571Z"/>
</mask>
<path d="M6.85714 32.5714C6.85714 31.6247 6.08963 30.8571 5.14286 30.8571C4.19608 30.8571 3.42857 31.6247 3.42857 32.5714C3.42857 35.754 4.69285 38.8063 6.94329 41.0567C9.19373 43.3071 12.246 44.5714 15.4286 44.5714H18.8571C19.8039 44.5714 20.5714 43.8039 20.5714 42.8571C20.5714 41.9104 19.8039 41.1429 18.8571 41.1429H15.4286C13.1553 41.1429 10.9751 40.2398 9.36766 38.6323C7.7602 37.0249 6.85714 34.8447 6.85714 32.5714ZM37.7143 15.4286C37.7143 16.3753 38.4818 17.1429 39.4286 17.1429C40.3753 17.1429 41.1429 16.3753 41.1429 15.4286C41.1429 12.246 39.8786 9.19373 37.6281 6.94329C35.3777 4.69286 32.3255 3.42857 29.1429 3.42857H25.7143C24.7675 3.42857 24 4.19609 24 5.14286C24 6.08963 24.7675 6.85715 25.7143 6.85715H29.1429C30.2685 6.85715 31.3831 7.07885 32.423 7.50961C33.4629 7.94036 34.4078 8.57173 35.2038 9.36766C35.9997 10.1636 36.6311 11.1085 37.0618 12.1484C37.4926 13.1884 37.7143 14.303 37.7143 15.4286ZM15.4286 15.4286H5.14286C3.77889 15.4286 2.47078 15.9704 1.50631 16.9349C0.541835 17.8994 0 19.2075 0 20.5714V22.2857C0 23.2325 0.767512 24 1.71429 24C2.66106 24 3.42857 23.2325 3.42857 22.2857V20.5714C3.42857 20.1168 3.60918 19.6807 3.93067 19.3592C4.25217 19.0378 4.6882 18.8571 5.14286 18.8571H15.4286C15.8832 18.8571 16.3193 19.0378 16.6408 19.3592C16.9622 19.6807 17.1429 20.1168 17.1429 20.5714V22.2857C17.1429 23.2325 17.9104 24 18.8571 24C19.8039 24 20.5714 23.2325 20.5714 22.2857V20.5714C20.5714 19.2075 20.0296 17.8994 19.0651 16.9349C18.1006 15.9704 16.7925 15.4286 15.4286 15.4286ZM10.2857 13.7143C11.6419 13.7143 12.9677 13.3121 14.0953 12.5587C15.223 11.8052 16.1019 10.7342 16.6209 9.48126C17.1399 8.22828 17.2757 6.84954 17.0111 5.51938C16.7465 4.18923 16.0934 2.9674 15.1344 2.00841C14.1755 1.04942 12.9536 0.396345 11.6235 0.131761C10.2933 -0.132823 8.91458 0.00297107 7.6616 0.521972C6.40862 1.04097 5.33768 1.91987 4.58421 3.04752C3.83074 4.17517 3.42857 5.50093 3.42857 6.85715C3.42857 8.67577 4.15102 10.4199 5.43698 11.7059C6.72295 12.9918 8.46709 13.7143 10.2857 13.7143ZM10.2857 3.42857C10.9638 3.42857 11.6267 3.62966 12.1905 4.00639C12.7544 4.38313 13.1938 4.9186 13.4533 5.54509C13.7128 6.17158 13.7807 6.86095 13.6484 7.52603C13.5161 8.1911 13.1896 8.80202 12.7101 9.28151C12.2306 9.76101 11.6197 10.0875 10.9546 10.2198C10.2895 10.3521 9.60015 10.2842 8.97366 10.0247C8.34717 9.76523 7.8117 9.32578 7.43496 8.76196C7.05823 8.19813 6.85714 7.53525 6.85714 6.85715C6.85714 5.94783 7.21837 5.07576 7.86135 4.43278C8.50433 3.7898 9.3764 3.42857 10.2857 3.42857ZM42.8571 39.4286H32.5714C31.2075 39.4286 29.8994 39.9704 28.9349 40.9349C27.9704 41.8994 27.4286 43.2075 27.4286 44.5714V46.2857C27.4286 47.2325 28.1961 48 29.1429 48C30.0896 48 30.8571 47.2325 30.8571 46.2857V44.5714C30.8571 44.1168 31.0378 43.6807 31.3592 43.3592C31.6807 43.0378 32.1168 42.8571 32.5714 42.8571H42.8571C43.3118 42.8571 43.7478 43.0378 44.0693 43.3592C44.3908 43.6807 44.5714 44.1168 44.5714 44.5714V46.2857C44.5714 47.2325 45.3389 48 46.2857 48C47.2325 48 48 47.2325 48 46.2857V44.5714C48 43.2075 47.4582 41.8994 46.4937 40.9349C45.5292 39.9704 44.2211 39.4286 42.8571 39.4286ZM30.8571 30.8571C30.8571 32.2134 31.2593 33.5391 32.0128 34.6668C32.7663 35.7944 33.8372 36.6733 35.0902 37.1923C36.3432 37.7113 37.7219 37.8471 39.052 37.5825C40.3822 37.3179 41.604 36.6649 42.563 35.7059C43.522 34.7469 44.1751 33.5251 44.4397 32.1949C44.7043 30.8648 44.5685 29.486 44.0495 28.233C43.5305 26.9801 42.6516 25.9091 41.5239 25.1556C40.3963 24.4022 39.0705 24 37.7143 24C35.8957 24 34.1515 24.7225 32.8656 26.0084C31.5796 27.2944 30.8571 29.0385 30.8571 30.8571ZM41.1429 30.8571C41.1429 31.5353 40.9418 32.1981 40.565 32.762C40.1883 33.3258 39.6528 33.7652 39.0263 34.0247C38.3999 34.2842 37.7105 34.3521 37.0454 34.2198C36.3803 34.0875 35.7694 33.761 35.2899 33.2815C34.8104 32.802 34.4839 32.1911 34.3516 31.526C34.2193 30.8609 34.2872 30.1716 34.5467 29.5451C34.8062 28.9186 35.2456 28.3831 35.8095 28.0064C36.3733 27.6297 37.0362 27.4286 37.7143 27.4286C38.6236 27.4286 39.4957 27.7898 40.1387 28.4328C40.7816 29.0758 41.1429 29.9478 41.1429 30.8571Z" fill="#242424"/>
<path d="M15.4286 44.5714V48.5714V44.5714ZM5.14286 15.4286V19.4286V15.4286ZM0 20.5714H-4H0ZM20.5714 20.5714H24.5714H20.5714ZM10.2857 13.7143V9.71429V13.7143ZM3.42857 6.85715H-0.571428H3.42857ZM27.4286 44.5714H23.4286H27.4286ZM48 44.5714H52H48ZM37.7143 24V28V24ZM-0.571428 32.5714C-0.571428 36.8149 1.11428 40.8846 4.11486 43.8851L9.77172 38.2283C8.27143 36.728 7.42857 34.6932 7.42857 32.5714H-0.571428ZM4.11486 43.8851C7.11545 46.8857 11.1851 48.5714 15.4286 48.5714V40.5714C13.3068 40.5714 11.272 39.7286 9.77172 38.2283L4.11486 43.8851ZM15.4286 48.5714H18.8571V40.5714H15.4286V48.5714ZM18.8571 37.1429H15.4286V45.1429H18.8571V37.1429ZM15.4286 37.1429C14.2162 37.1429 13.0534 36.6612 12.1961 35.8039L6.53923 41.4608C8.89683 43.8184 12.0944 45.1429 15.4286 45.1429V37.1429ZM12.1961 35.8039C11.3388 34.9466 10.8571 33.7838 10.8571 32.5714H2.85714C2.85714 35.9056 4.18163 39.1032 6.53923 41.4608L12.1961 35.8039ZM45.1429 15.4286C45.1429 11.1851 43.4571 7.11545 40.4566 4.11487L34.7997 9.77172C36.3 11.272 37.1429 13.3068 37.1429 15.4286H45.1429ZM40.4566 4.11487C37.456 1.11428 33.3863 -0.571426 29.1429 -0.571426V7.42857C31.2646 7.42857 33.2994 8.27143 34.7997 9.77172L40.4566 4.11487ZM29.1429 -0.571426H25.7143V7.42857H29.1429V-0.571426ZM25.7143 10.8571H29.1429V2.85715H25.7143V10.8571ZM29.1429 10.8571C29.7432 10.8571 30.3376 10.9754 30.8923 11.2051L33.9537 3.81409C32.4285 3.18232 30.7938 2.85715 29.1429 2.85715V10.8571ZM30.8923 11.2051C31.4469 11.4349 31.9508 11.7716 32.3753 12.1961L38.0322 6.53923C36.8648 5.37187 35.479 4.44586 33.9537 3.81409L30.8923 11.2051ZM32.3753 12.1961C32.7998 12.6206 33.1366 13.1245 33.3663 13.6792L40.7573 10.6177C40.1256 9.09246 39.1996 7.7066 38.0322 6.53923L32.3753 12.1961ZM33.3663 13.6792C33.596 14.2338 33.7143 14.8282 33.7143 15.4286H41.7143C41.7143 13.7777 41.3891 12.1429 40.7573 10.6177L33.3663 13.6792ZM15.4286 11.4286H5.14286V19.4286H15.4286V11.4286ZM5.14286 11.4286C2.71802 11.4286 0.3925 12.3918 -1.32212 14.1065L4.33474 19.7633C4.54906 19.549 4.83975 19.4286 5.14286 19.4286V11.4286ZM-1.32212 14.1065C-3.03674 15.8211 -4 18.1466 -4 20.5714H4C4 20.2683 4.12041 19.9776 4.33474 19.7633L-1.32212 14.1065ZM-4 20.5714V22.2857H4V20.5714H-4ZM7.42857 22.2857V20.5714H-0.571428V22.2857H7.42857ZM7.42857 20.5714C7.42857 21.1776 7.18776 21.759 6.7591 22.1877L1.10225 16.5308C0.0306102 17.6025 -0.571428 19.0559 -0.571428 20.5714H7.42857ZM6.7591 22.1877C6.33044 22.6163 5.74906 22.8571 5.14286 22.8571V14.8571C3.62734 14.8571 2.17389 15.4592 1.10225 16.5308L6.7591 22.1877ZM5.14286 22.8571H15.4286V14.8571H5.14286V22.8571ZM15.4286 22.8571C14.8224 22.8571 14.241 22.6163 13.8123 22.1877L19.4692 16.5308C18.3975 15.4592 16.9441 14.8571 15.4286 14.8571V22.8571ZM13.8123 22.1877C13.3837 21.759 13.1429 21.1776 13.1429 20.5714H21.1429C21.1429 19.0559 20.5408 17.6025 19.4692 16.5308L13.8123 22.1877ZM13.1429 20.5714V22.2857H21.1429V20.5714H13.1429ZM24.5714 22.2857V20.5714H16.5714V22.2857H24.5714ZM24.5714 20.5714C24.5714 18.1466 23.6082 15.8211 21.8935 14.1065L16.2367 19.7633C16.451 19.9776 16.5714 20.2683 16.5714 20.5714H24.5714ZM21.8935 14.1065C20.1789 12.3918 17.8534 11.4286 15.4286 11.4286V19.4286C15.7317 19.4286 16.0224 19.549 16.2367 19.7633L21.8935 14.1065ZM10.2857 17.7143C12.4331 17.7143 14.5322 17.0775 16.3176 15.8845L11.8731 9.23277C11.4032 9.54672 10.8508 9.71429 10.2857 9.71429V17.7143ZM16.3176 15.8845C18.1031 14.6915 19.4947 12.9959 20.3164 11.012L12.9254 7.95053C12.7091 8.4726 12.3429 8.91882 11.8731 9.23277L16.3176 15.8845ZM20.3164 11.012C21.1382 9.02811 21.3532 6.8451 20.9342 4.73902L13.088 6.29974C13.1982 6.85398 13.1416 7.42845 12.9254 7.95053L20.3164 11.012ZM20.9342 4.73902C20.5153 2.63294 19.4813 0.698385 17.9629 -0.820014L12.306 4.83684C12.7056 5.23642 12.9777 5.74551 13.088 6.29974L20.9342 4.73902ZM17.9629 -0.820014C16.4445 -2.33841 14.5099 -3.37246 12.4038 -3.79138L10.8431 4.0549C11.3973 4.16515 11.9064 4.43726 12.306 4.83684L17.9629 -0.820014ZM12.4038 -3.79138C10.2978 -4.21031 8.11475 -3.9953 6.13087 -3.17355L9.19233 4.21749C9.71441 4.00124 10.2889 3.94466 10.8431 4.0549L12.4038 -3.79138ZM6.13087 -3.17355C4.14698 -2.3518 2.45133 -0.960209 1.25833 0.82524L7.91009 5.2698C8.22403 4.79995 8.67026 4.43374 9.19233 4.21749L6.13087 -3.17355ZM1.25833 0.82524C0.0653307 2.61069 -0.571428 4.70981 -0.571428 6.85715H7.42857C7.42857 6.29206 7.59614 5.73966 7.91009 5.2698L1.25833 0.82524ZM-0.571428 6.85715C-0.571428 9.73664 0.572445 12.4982 2.60856 14.5343L8.26541 8.87745C7.72959 8.34163 7.42857 7.61491 7.42857 6.85715H-0.571428ZM2.60856 14.5343C4.64467 16.5704 7.40622 17.7143 10.2857 17.7143V9.71429C9.52795 9.71429 8.80123 9.41327 8.26541 8.87745L2.60856 14.5343ZM10.2857 7.42857C10.1727 7.42857 10.0622 7.39506 9.96825 7.33227L14.4128 0.680514C13.1912 -0.135746 11.7549 -0.571426 10.2857 -0.571426V7.42857ZM9.96825 7.33227C9.87428 7.26948 9.80104 7.18024 9.75778 7.07582L17.1488 4.01435C16.5866 2.65696 15.6344 1.49677 14.4128 0.680514L9.96825 7.33227ZM9.75778 7.07582C9.71453 6.97141 9.70322 6.85651 9.72527 6.74567L17.5715 8.30639C17.8582 6.86539 17.7111 5.37175 17.1488 4.01435L9.75778 7.07582ZM9.72527 6.74567C9.74732 6.63482 9.80174 6.533 9.88165 6.45308L15.5385 12.1099C16.5774 11.071 17.2849 9.74739 17.5715 8.30639L9.72527 6.74567ZM9.88165 6.45308C9.96157 6.37317 10.0634 6.31875 10.1742 6.2967L11.735 14.143C13.176 13.8563 14.4996 13.1488 15.5385 12.1099L9.88165 6.45308ZM10.1742 6.2967C10.2851 6.27465 10.4 6.28596 10.5044 6.32921L7.44292 13.7203C8.80032 14.2825 10.294 14.4296 11.735 14.143L10.1742 6.2967ZM10.5044 6.32921C10.6088 6.37247 10.6981 6.44571 10.7608 6.53968L4.10908 10.9842C4.92534 12.2059 6.08553 13.158 7.44292 13.7203L10.5044 6.32921ZM10.7608 6.53968C10.8236 6.63365 10.8571 6.74413 10.8571 6.85715H2.85714C2.85714 8.32638 3.29282 9.76262 4.10908 10.9842L10.7608 6.53968ZM10.8571 6.85715C10.8571 7.0087 10.7969 7.15404 10.6898 7.26121L5.03292 1.60435C3.63979 2.99748 2.85714 4.88697 2.85714 6.85715H10.8571ZM10.6898 7.26121C10.5826 7.36837 10.4373 7.42857 10.2857 7.42857V-0.571426C8.31554 -0.571426 6.42605 0.211224 5.03292 1.60435L10.6898 7.26121ZM42.8571 35.4286H32.5714V43.4286H42.8571V35.4286ZM32.5714 35.4286C30.1466 35.4286 27.8211 36.3918 26.1065 38.1065L31.7633 43.7633C31.9776 43.549 32.2683 43.4286 32.5714 43.4286V35.4286ZM26.1065 38.1065C24.3918 39.8211 23.4286 42.1466 23.4286 44.5714H31.4286C31.4286 44.2683 31.549 43.9776 31.7633 43.7633L26.1065 38.1065ZM23.4286 44.5714V46.2857H31.4286V44.5714H23.4286ZM34.8571 46.2857V44.5714H26.8571V46.2857H34.8571ZM34.8571 44.5714C34.8571 45.1776 34.6163 45.759 34.1877 46.1877L28.5308 40.5308C27.4592 41.6025 26.8571 43.0559 26.8571 44.5714H34.8571ZM34.1877 46.1877C33.759 46.6163 33.1776 46.8571 32.5714 46.8571V38.8571C31.0559 38.8571 29.6025 39.4592 28.5308 40.5308L34.1877 46.1877ZM32.5714 46.8571H42.8571V38.8571H32.5714V46.8571ZM42.8571 46.8571C42.2509 46.8571 41.6696 46.6163 41.2409 46.1877L46.8978 40.5308C45.8261 39.4592 44.3727 38.8571 42.8571 38.8571V46.8571ZM41.2409 46.1877C40.8122 45.759 40.5714 45.1776 40.5714 44.5714H48.5714C48.5714 43.0559 47.9694 41.6025 46.8978 40.5308L41.2409 46.1877ZM40.5714 44.5714V46.2857H48.5714V44.5714H40.5714ZM52 46.2857V44.5714H44V46.2857H52ZM52 44.5714C52 42.1466 51.0367 39.8211 49.3221 38.1065L43.6653 43.7633C43.8796 43.9776 44 44.2683 44 44.5714H52ZM49.3221 38.1065C47.6075 36.3918 45.282 35.4286 42.8571 35.4286V43.4286C43.1602 43.4286 43.4509 43.549 43.6653 43.7633L49.3221 38.1065ZM26.8571 30.8571C26.8571 33.0045 27.4939 35.1036 28.6869 36.889L35.3387 32.4445C35.0247 31.9746 34.8571 31.4222 34.8571 30.8571H26.8571ZM28.6869 36.889C29.8799 38.6745 31.5756 40.0661 33.5594 40.8878L36.6209 33.4968C36.0988 33.2806 35.6526 32.9143 35.3387 32.4445L28.6869 36.889ZM33.5594 40.8878C35.5433 41.7096 37.7263 41.9246 39.8324 41.5057L38.2717 33.6594C37.7175 33.7696 37.143 33.7131 36.6209 33.4968L33.5594 40.8878ZM39.8324 41.5057C41.9385 41.0867 43.873 40.0527 45.3914 38.5343L39.7346 32.8774C39.335 33.277 38.8259 33.5491 38.2717 33.6594L39.8324 41.5057ZM45.3914 38.5343C46.9098 37.0159 47.9439 35.0814 48.3628 32.9753L40.5165 31.4145C40.4063 31.9688 40.1342 32.4779 39.7346 32.8774L45.3914 38.5343ZM48.3628 32.9753C48.7817 30.8692 48.5667 28.6862 47.745 26.7023L40.3539 29.7638C40.5702 30.2858 40.6268 30.8603 40.5165 31.4145L48.3628 32.9753ZM47.745 26.7023C46.9232 24.7184 45.5316 23.0228 43.7462 21.8298L39.3016 28.4815C39.7715 28.7955 40.1377 29.2417 40.3539 29.7638L47.745 26.7023ZM43.7462 21.8298C41.9607 20.6368 39.8616 20 37.7143 20V28C38.2794 28 38.8318 28.1676 39.3016 28.4815L43.7462 21.8298ZM37.7143 20C34.8348 20 32.0732 21.1439 30.0371 23.18L35.694 28.8368C36.2298 28.301 36.9565 28 37.7143 28V20ZM30.0371 23.18C28.001 25.2161 26.8571 27.9776 26.8571 30.8571H34.8571C34.8571 30.0994 35.1582 29.3727 35.694 28.8368L30.0371 23.18ZM37.1429 30.8571C37.1429 30.7441 37.1764 30.6336 37.2392 30.5397L43.8909 34.9842C44.7072 33.7626 45.1429 32.3264 45.1429 30.8571H37.1429ZM37.2392 30.5397C37.3019 30.4457 37.3912 30.3725 37.4956 30.3292L40.5571 37.7202C41.9145 37.158 43.0747 36.2059 43.8909 34.9842L37.2392 30.5397ZM37.4956 30.3292C37.6 30.286 37.7149 30.2746 37.8258 30.2967L36.265 38.143C37.706 38.4296 39.1997 38.2825 40.5571 37.7202L37.4956 30.3292ZM37.8258 30.2967C37.9366 30.3187 38.0384 30.3732 38.1184 30.4531L32.4615 36.1099C33.5004 37.1488 34.824 37.8563 36.265 38.143L37.8258 30.2967ZM38.1184 30.4531C38.1983 30.533 38.2527 30.6348 38.2747 30.7457L30.4285 32.3064C30.7151 33.7474 31.4226 35.071 32.4615 36.1099L38.1184 30.4531ZM38.2747 30.7457C38.2968 30.8565 38.2855 30.9714 38.2422 31.0758L30.8512 28.0144C30.2889 29.3717 30.1418 30.8654 30.4285 32.3064L38.2747 30.7457ZM38.2422 31.0758C38.199 31.1802 38.1257 31.2695 38.0318 31.3323L33.5872 24.6805C32.3656 25.4968 31.4134 26.657 30.8512 28.0144L38.2422 31.0758ZM38.0318 31.3323C37.9378 31.3951 37.8273 31.4286 37.7143 31.4286V23.4286C36.2451 23.4286 34.8088 23.8642 33.5872 24.6805L38.0318 31.3323ZM37.7143 31.4286C37.5627 31.4286 37.4174 31.3684 37.3102 31.2612L42.9671 25.6044C41.574 24.2112 39.6845 23.4286 37.7143 23.4286V31.4286ZM37.3102 31.2612C37.2031 31.154 37.1429 31.0087 37.1429 30.8571H45.1429C45.1429 28.887 44.3602 26.9975 42.9671 25.6044L37.3102 31.2612ZM-4 22.2857C-4 25.4416 -1.44162 28 1.71429 28V20C2.97665 20 4 21.0233 4 22.2857H-4ZM1.71429 28C4.8702 28 7.42857 25.4416 7.42857 22.2857H-0.571428C-0.571428 21.0234 0.451919 20 1.71429 20V28ZM23.4286 46.2857C23.4286 49.4416 25.9869 52 29.1429 52V44C30.4052 44 31.4286 45.0233 31.4286 46.2857H23.4286ZM25.7143 -0.571426C22.5584 -0.571426 20 1.98694 20 5.14286H28C28 6.40523 26.9767 7.42857 25.7143 7.42857V-0.571426ZM24.5714 42.8571C24.5714 39.7012 22.0131 37.1429 18.8571 37.1429V45.1429C17.5948 45.1429 16.5714 44.1195 16.5714 42.8571H24.5714ZM46.2857 52C49.4416 52 52 49.4416 52 46.2857H44C44 45.0233 45.0233 44 46.2857 44V52ZM5.14286 26.8571C1.98694 26.8571 -0.571428 29.4155 -0.571428 32.5714H7.42857C7.42857 33.8338 6.40522 34.8571 5.14286 34.8571V26.8571ZM13.1429 22.2857C13.1429 25.4416 15.7012 28 18.8571 28V20C20.1195 20 21.1429 21.0233 21.1429 22.2857H13.1429ZM33.7143 15.4286C33.7143 18.5845 36.2727 21.1429 39.4286 21.1429V13.1429C40.6909 13.1429 41.7143 14.1662 41.7143 15.4286H33.7143ZM29.1429 52C32.2988 52 34.8571 49.4416 34.8571 46.2857H26.8571C26.8571 45.0233 27.8805 44 29.1429 44V52ZM20 5.14286C20 8.29877 22.5584 10.8571 25.7143 10.8571V2.85715C26.9767 2.85715 28 3.88049 28 5.14286H20ZM18.8571 48.5714C22.0131 48.5714 24.5714 46.0131 24.5714 42.8571H16.5714C16.5714 41.5948 17.5948 40.5714 18.8571 40.5714V48.5714ZM18.8571 28C22.0131 28 24.5714 25.4416 24.5714 22.2857H16.5714C16.5714 21.0234 17.5948 20 18.8571 20V28ZM39.4286 21.1429C42.5845 21.1429 45.1429 18.5845 45.1429 15.4286H37.1429C37.1429 14.1662 38.1662 13.1429 39.4286 13.1429V21.1429ZM40.5714 46.2857C40.5714 49.4416 43.1298 52 46.2857 52V44C47.5481 44 48.5714 45.0233 48.5714 46.2857H40.5714ZM10.8571 32.5714C10.8571 29.4155 8.29877 26.8571 5.14286 26.8571V34.8571C3.88049 34.8571 2.85714 33.8338 2.85714 32.5714H10.8571Z" fill="#ED3237" mask="url(#path-1-inside-1_318_563)"/>
</svg>
