<svg width="44" height="37" viewBox="0 0 44 37" fill="none" xmlns="http://www.w3.org/2000/svg">
<mask id="path-1-inside-1_318_390" fill="white">
<path d="M8.46154 9.4425C8.46154 8.77578 8.59286 8.1156 8.848 7.49964C9.10314 6.88368 9.4771 6.324 9.94853 5.85257C10.42 5.38113 10.9796 5.00717 11.5956 4.75203C12.2116 4.49689 12.8718 4.36557 13.5385 4.36557C14.2052 4.36557 14.8654 4.49689 15.4813 4.75203C16.0973 5.00717 16.657 5.38113 17.1284 5.85257C17.5998 6.324 17.9738 6.88368 18.2289 7.49964C18.4841 8.1156 18.6154 8.77578 18.6154 9.4425C18.6154 10.789 18.0805 12.0803 17.1284 13.0324C16.1763 13.9845 14.8849 14.5194 13.5385 14.5194C12.192 14.5194 10.9006 13.9845 9.94853 13.0324C8.99643 12.0803 8.46154 10.789 8.46154 9.4425ZM13.5385 0.980957C11.2943 0.980957 9.1421 1.87244 7.55525 3.45928C5.9684 5.04613 5.07692 7.19836 5.07692 9.4425C5.07692 11.6866 5.9684 13.8389 7.55525 15.4257C9.1421 17.0126 11.2943 17.904 13.5385 17.904C15.7826 17.904 17.9348 17.0126 19.5217 15.4257C21.1085 13.8389 22 11.6866 22 9.4425C22 7.19836 21.1085 5.04613 19.5217 3.45928C17.9348 1.87244 15.7826 0.980957 13.5385 0.980957ZM30.4615 11.1348C30.4615 10.2371 30.8181 9.37626 31.4529 8.74152C32.0876 8.10678 32.9485 7.75019 33.8462 7.75019C34.7438 7.75019 35.6047 8.10678 36.2394 8.74152C36.8742 9.37626 37.2308 10.2371 37.2308 11.1348C37.2308 12.0325 36.8742 12.8933 36.2394 13.5281C35.6047 14.1628 34.7438 14.5194 33.8462 14.5194C32.9485 14.5194 32.0876 14.1628 31.4529 13.5281C30.8181 12.8933 30.4615 12.0325 30.4615 11.1348ZM33.8462 4.36557C32.0508 4.36557 30.3291 5.07876 29.0596 6.34823C27.7901 7.61771 27.0769 9.33949 27.0769 11.1348C27.0769 12.9301 27.7901 14.6519 29.0596 15.9214C30.3291 17.1908 32.0508 17.904 33.8462 17.904C35.6415 17.904 37.3632 17.1908 38.6327 15.9214C39.9022 14.6519 40.6154 12.9301 40.6154 11.1348C40.6154 9.33949 39.9022 7.61771 38.6327 6.34823C37.3632 5.07876 35.6415 4.36557 33.8462 4.36557ZM0 26.3656C0 25.0191 0.534889 23.7278 1.487 22.7756C2.4391 21.8235 3.73044 21.2886 5.07692 21.2886H22C23.3465 21.2886 24.6378 21.8235 25.5899 22.7756C26.542 23.7278 27.0769 25.0191 27.0769 26.3656V26.7446C27.0733 26.8997 27.062 27.0544 27.0431 27.2083C26.8502 28.8492 26.2396 30.4131 25.2695 31.7505C23.4182 34.3059 19.8982 36.5194 13.5385 36.5194C7.18215 36.5194 3.66215 34.3059 1.804 31.7505C0.835193 30.4128 0.22572 28.8489 0.0338461 27.2083C0.0169962 27.0542 0.0057069 26.8996 0 26.7446V26.3656ZM3.38462 26.6702V26.6939L3.39815 26.8597C3.52923 27.9075 3.92272 28.9052 4.54215 29.7603C5.64554 31.2766 8.04862 33.1348 13.5385 33.1348C19.0283 33.1348 21.4314 31.2766 22.5348 29.7603C23.1542 28.9052 23.5477 27.9075 23.6788 26.8597C23.6848 26.8034 23.6893 26.747 23.6923 26.6905V26.3656C23.6923 25.9167 23.514 25.4863 23.1966 25.1689C22.8793 24.8516 22.4488 24.6733 22 24.6733H5.07692C4.6281 24.6733 4.19765 24.8516 3.88028 25.1689C3.56291 25.4863 3.38462 25.9167 3.38462 26.3656V26.6702ZM33.8462 33.1348C31.856 33.1348 30.2246 32.8302 28.9046 32.3293C29.4472 31.3353 29.858 30.2749 30.1265 29.1748C31.0335 29.5166 32.2385 29.7502 33.8462 29.7502C37.6335 29.7502 39.1871 28.4573 39.8708 27.496C40.2704 26.9354 40.524 26.2839 40.6086 25.6006L40.6154 25.5059C40.6118 25.2838 40.5211 25.0721 40.3628 24.9163C40.2045 24.7605 39.9913 24.6732 39.7692 24.6733H30.2923C30.0424 23.4459 29.5221 22.2897 28.7692 21.2886H39.7692C42.1046 21.2886 44 23.184 44 25.5194V25.577C43.996 25.7002 43.9869 25.8233 43.9729 25.9459C43.8295 27.2144 43.366 28.4257 42.6258 29.4659C41.1975 31.4662 38.5203 33.1348 33.8462 33.1348Z"/>
</mask>
<path d="M8.46154 9.4425C8.46154 8.77578 8.59286 8.1156 8.848 7.49964C9.10314 6.88368 9.4771 6.324 9.94853 5.85257C10.42 5.38113 10.9796 5.00717 11.5956 4.75203C12.2116 4.49689 12.8718 4.36557 13.5385 4.36557C14.2052 4.36557 14.8654 4.49689 15.4813 4.75203C16.0973 5.00717 16.657 5.38113 17.1284 5.85257C17.5998 6.324 17.9738 6.88368 18.2289 7.49964C18.4841 8.1156 18.6154 8.77578 18.6154 9.4425C18.6154 10.789 18.0805 12.0803 17.1284 13.0324C16.1763 13.9845 14.8849 14.5194 13.5385 14.5194C12.192 14.5194 10.9006 13.9845 9.94853 13.0324C8.99643 12.0803 8.46154 10.789 8.46154 9.4425ZM13.5385 0.980957C11.2943 0.980957 9.1421 1.87244 7.55525 3.45928C5.9684 5.04613 5.07692 7.19836 5.07692 9.4425C5.07692 11.6866 5.9684 13.8389 7.55525 15.4257C9.1421 17.0126 11.2943 17.904 13.5385 17.904C15.7826 17.904 17.9348 17.0126 19.5217 15.4257C21.1085 13.8389 22 11.6866 22 9.4425C22 7.19836 21.1085 5.04613 19.5217 3.45928C17.9348 1.87244 15.7826 0.980957 13.5385 0.980957ZM30.4615 11.1348C30.4615 10.2371 30.8181 9.37626 31.4529 8.74152C32.0876 8.10678 32.9485 7.75019 33.8462 7.75019C34.7438 7.75019 35.6047 8.10678 36.2394 8.74152C36.8742 9.37626 37.2308 10.2371 37.2308 11.1348C37.2308 12.0325 36.8742 12.8933 36.2394 13.5281C35.6047 14.1628 34.7438 14.5194 33.8462 14.5194C32.9485 14.5194 32.0876 14.1628 31.4529 13.5281C30.8181 12.8933 30.4615 12.0325 30.4615 11.1348ZM33.8462 4.36557C32.0508 4.36557 30.3291 5.07876 29.0596 6.34823C27.7901 7.61771 27.0769 9.33949 27.0769 11.1348C27.0769 12.9301 27.7901 14.6519 29.0596 15.9214C30.3291 17.1908 32.0508 17.904 33.8462 17.904C35.6415 17.904 37.3632 17.1908 38.6327 15.9214C39.9022 14.6519 40.6154 12.9301 40.6154 11.1348C40.6154 9.33949 39.9022 7.61771 38.6327 6.34823C37.3632 5.07876 35.6415 4.36557 33.8462 4.36557ZM0 26.3656C0 25.0191 0.534889 23.7278 1.487 22.7756C2.4391 21.8235 3.73044 21.2886 5.07692 21.2886H22C23.3465 21.2886 24.6378 21.8235 25.5899 22.7756C26.542 23.7278 27.0769 25.0191 27.0769 26.3656V26.7446C27.0733 26.8997 27.062 27.0544 27.0431 27.2083C26.8502 28.8492 26.2396 30.4131 25.2695 31.7505C23.4182 34.3059 19.8982 36.5194 13.5385 36.5194C7.18215 36.5194 3.66215 34.3059 1.804 31.7505C0.835193 30.4128 0.22572 28.8489 0.0338461 27.2083C0.0169962 27.0542 0.0057069 26.8996 0 26.7446V26.3656ZM3.38462 26.6702V26.6939L3.39815 26.8597C3.52923 27.9075 3.92272 28.9052 4.54215 29.7603C5.64554 31.2766 8.04862 33.1348 13.5385 33.1348C19.0283 33.1348 21.4314 31.2766 22.5348 29.7603C23.1542 28.9052 23.5477 27.9075 23.6788 26.8597C23.6848 26.8034 23.6893 26.747 23.6923 26.6905V26.3656C23.6923 25.9167 23.514 25.4863 23.1966 25.1689C22.8793 24.8516 22.4488 24.6733 22 24.6733H5.07692C4.6281 24.6733 4.19765 24.8516 3.88028 25.1689C3.56291 25.4863 3.38462 25.9167 3.38462 26.3656V26.6702ZM33.8462 33.1348C31.856 33.1348 30.2246 32.8302 28.9046 32.3293C29.4472 31.3353 29.858 30.2749 30.1265 29.1748C31.0335 29.5166 32.2385 29.7502 33.8462 29.7502C37.6335 29.7502 39.1871 28.4573 39.8708 27.496C40.2704 26.9354 40.524 26.2839 40.6086 25.6006L40.6154 25.5059C40.6118 25.2838 40.5211 25.0721 40.3628 24.9163C40.2045 24.7605 39.9913 24.6732 39.7692 24.6733H30.2923C30.0424 23.4459 29.5221 22.2897 28.7692 21.2886H39.7692C42.1046 21.2886 44 23.184 44 25.5194V25.577C43.996 25.7002 43.9869 25.8233 43.9729 25.9459C43.8295 27.2144 43.366 28.4257 42.6258 29.4659C41.1975 31.4662 38.5203 33.1348 33.8462 33.1348Z" fill="#242424"/>
<path d="M13.5385 4.36557V0.365572V4.36557ZM18.6154 9.4425H14.6154H18.6154ZM5.07692 9.4425H1.07692H5.07692ZM13.5385 17.904V21.904V17.904ZM22 9.4425H26H22ZM33.8462 7.75019V11.7502V7.75019ZM33.8462 17.904V21.904V17.904ZM5.07692 21.2886L5.07692 17.2886L5.07692 21.2886ZM22 21.2886V17.2886V21.2886ZM27.0769 26.3656H31.0769H27.0769ZM27.0769 26.7446L31.0759 26.8369L31.0769 26.7908V26.7446H27.0769ZM27.0431 27.2083L23.0731 26.719L23.0717 26.7302L23.0704 26.7414L27.0431 27.2083ZM25.2695 31.7505L22.0316 29.402L22.0303 29.4037L25.2695 31.7505ZM1.804 31.7505L-1.43566 34.0967L-1.43113 34.1029L1.804 31.7505ZM0.0338461 27.2083L-3.94246 27.6431L-3.94082 27.6581L-3.93907 27.673L0.0338461 27.2083ZM0 26.7446H-4V26.8183L-3.99729 26.8919L0 26.7446ZM3.38462 26.6939H-0.615385V26.8569L-0.602123 27.0193L3.38462 26.6939ZM3.39815 26.8597L-0.588585 27.1852L-0.581587 27.2709L-0.570909 27.3563L3.39815 26.8597ZM4.54215 29.7603L1.30271 32.1068L1.30783 32.1139L4.54215 29.7603ZM22.5348 29.7603L25.7691 32.1139L25.7742 32.1068L22.5348 29.7603ZM23.6788 26.8597L27.6478 27.3563L27.6521 27.3223L27.6558 27.2882L23.6788 26.8597ZM23.6923 26.6905L27.6868 26.8997L27.6923 26.7952V26.6905H23.6923ZM28.9046 32.3293L25.3937 30.4126L23.1946 34.4407L27.4854 36.069L28.9046 32.3293ZM30.1265 29.1748L31.5371 25.4318L27.3112 23.8392L26.2405 28.2264L30.1265 29.1748ZM39.8708 27.496L36.6135 25.1743L36.6112 25.1776L39.8708 27.496ZM40.6086 25.6006L44.5783 26.0923L44.5911 25.9892L44.5985 25.8856L40.6086 25.6006ZM40.6154 25.5059L44.6052 25.7908L44.6177 25.6166L44.6149 25.4419L40.6154 25.5059ZM39.7692 24.6733V28.6733H39.7697L39.7692 24.6733ZM30.2923 24.6733L26.3727 25.4712L27.0246 28.6733H30.2923V24.6733ZM28.7692 21.2886V17.2886H20.7555L25.5725 23.693L28.7692 21.2886ZM44 25.577L47.9978 25.7083L48 25.6426V25.577H44ZM43.9729 25.9459L39.9987 25.4921L39.9982 25.4965L43.9729 25.9459ZM42.6258 29.4659L45.8812 31.7903L45.885 31.7849L42.6258 29.4659ZM12.4615 9.4425C12.4615 9.30107 12.4894 9.16103 12.5435 9.03037L5.15248 5.96891C4.69632 7.07017 4.46154 8.2505 4.46154 9.4425H12.4615ZM12.5435 9.03037C12.5976 8.89971 12.677 8.781 12.777 8.68099L7.12011 3.02414C6.27724 3.86701 5.60863 4.86765 5.15248 5.96891L12.5435 9.03037ZM12.777 8.68099C12.877 8.581 12.9957 8.50167 13.1263 8.44755L10.0649 1.05651C8.96361 1.51267 7.96298 2.18127 7.12011 3.02414L12.777 8.68099ZM13.1263 8.44755C13.257 8.39343 13.397 8.36557 13.5385 8.36557V0.365572C12.3465 0.365572 11.1661 0.600353 10.0649 1.05651L13.1263 8.44755ZM13.5385 8.36557C13.6799 8.36557 13.8199 8.39343 13.9506 8.44755L17.0121 1.05651C15.9108 0.600353 14.7305 0.365572 13.5385 0.365572V8.36557ZM13.9506 8.44755C14.0812 8.50167 14.2 8.581 14.3 8.68099L19.9568 3.02414C19.1139 2.18127 18.1133 1.51267 17.0121 1.05651L13.9506 8.44755ZM14.3 8.68099C14.4 8.781 14.4793 8.89971 14.5334 9.03037L21.9244 5.96891C21.4683 4.86765 20.7997 3.86701 19.9568 3.02414L14.3 8.68099ZM14.5334 9.03037C14.5875 9.16103 14.6154 9.30107 14.6154 9.4425H22.6154C22.6154 8.2505 22.3806 7.07017 21.9244 5.96891L14.5334 9.03037ZM14.6154 9.4425C14.6154 9.72811 14.5019 10.002 14.3 10.204L19.9568 15.8608C21.6591 14.1586 22.6154 11.8498 22.6154 9.4425H14.6154ZM14.3 10.204C14.098 10.406 13.8241 10.5194 13.5385 10.5194V18.5194C15.9458 18.5194 18.2546 17.5631 19.9568 15.8608L14.3 10.204ZM13.5385 10.5194C13.2528 10.5194 12.9789 10.406 12.777 10.204L7.12011 15.8608C8.82236 17.5631 11.1311 18.5194 13.5385 18.5194V10.5194ZM12.777 10.204C12.575 10.002 12.4615 9.72811 12.4615 9.4425H4.46154C4.46154 11.8498 5.41785 14.1586 7.12011 15.8608L12.777 10.204ZM13.5385 -3.01904C10.2335 -3.01904 7.06382 -1.70613 4.72682 0.630857L10.3837 6.28771C11.2204 5.45101 12.3552 4.98096 13.5385 4.98096V-3.01904ZM4.72682 0.630857C2.38983 2.96785 1.07692 6.13749 1.07692 9.4425H9.07692C9.07692 8.25922 9.54698 7.12441 10.3837 6.28771L4.72682 0.630857ZM1.07692 9.4425C1.07692 12.7475 2.38983 15.9171 4.72682 18.2541L10.3837 12.5973C9.54698 11.7606 9.07692 10.6258 9.07692 9.4425H1.07692ZM4.72682 18.2541C7.06382 20.5911 10.2335 21.904 13.5385 21.904V13.904C12.3552 13.904 11.2204 13.434 10.3837 12.5973L4.72682 18.2541ZM13.5385 21.904C16.8435 21.904 20.0131 20.5911 22.3501 18.2541L16.6932 12.5973C15.8565 13.434 14.7217 13.904 13.5385 13.904V21.904ZM22.3501 18.2541C24.6871 15.9171 26 12.7475 26 9.4425H18C18 10.6258 17.5299 11.7606 16.6932 12.5973L22.3501 18.2541ZM26 9.4425C26 6.13749 24.6871 2.96785 22.3501 0.630857L16.6932 6.28771C17.5299 7.12441 18 8.25922 18 9.4425H26ZM22.3501 0.630857C20.0131 -1.70613 16.8435 -3.01904 13.5385 -3.01904V4.98096C14.7217 4.98096 15.8565 5.45101 16.6932 6.28771L22.3501 0.630857ZM34.4615 11.1348C34.4615 11.298 34.3967 11.4545 34.2813 11.5699L28.6244 5.91309C27.2396 7.29797 26.4615 9.17628 26.4615 11.1348H34.4615ZM34.2813 11.5699C34.1659 11.6854 34.0094 11.7502 33.8462 11.7502V3.75019C31.8876 3.75019 30.0093 4.52821 28.6244 5.91309L34.2813 11.5699ZM33.8462 11.7502C33.6829 11.7502 33.5264 11.6854 33.411 11.5699L39.0679 5.91309C37.683 4.52821 35.8047 3.75019 33.8462 3.75019V11.7502ZM33.411 11.5699C33.2956 11.4545 33.2308 11.298 33.2308 11.1348H41.2308C41.2308 9.17628 40.4527 7.29797 39.0679 5.91309L33.411 11.5699ZM33.2308 11.1348C33.2308 10.9716 33.2956 10.8151 33.411 10.6997L39.0679 16.3565C40.4527 14.9716 41.2308 13.0933 41.2308 11.1348H33.2308ZM33.411 10.6997C33.5264 10.5843 33.6829 10.5194 33.8462 10.5194V18.5194C35.8047 18.5194 37.683 17.7414 39.0679 16.3565L33.411 10.6997ZM33.8462 10.5194C34.0094 10.5194 34.1659 10.5843 34.2813 10.6997L28.6244 16.3565C30.0093 17.7414 31.8876 18.5194 33.8462 18.5194V10.5194ZM34.2813 10.6997C34.3967 10.8151 34.4615 10.9716 34.4615 11.1348H26.4615C26.4615 13.0933 27.2396 14.9716 28.6244 16.3565L34.2813 10.6997ZM33.8462 0.365572C30.99 0.365572 28.2508 1.50018 26.2312 3.51981L31.888 9.17666C32.4073 8.65733 33.1117 8.36557 33.8462 8.36557V0.365572ZM26.2312 3.51981C24.2115 5.53943 23.0769 8.27862 23.0769 11.1348H31.0769C31.0769 10.4004 31.3687 9.69599 31.888 9.17666L26.2312 3.51981ZM23.0769 11.1348C23.0769 13.991 24.2115 16.7302 26.2312 18.7498L31.888 13.0929C31.3687 12.5736 31.0769 11.8692 31.0769 11.1348H23.0769ZM26.2312 18.7498C28.2508 20.7694 30.99 21.904 33.8462 21.904V13.904C33.1117 13.904 32.4073 13.6123 31.888 13.0929L26.2312 18.7498ZM33.8462 21.904C36.7023 21.904 39.4415 20.7694 41.4611 18.7498L35.8043 13.0929C35.285 13.6123 34.5806 13.904 33.8462 13.904V21.904ZM41.4611 18.7498C43.4808 16.7302 44.6154 13.991 44.6154 11.1348H36.6154C36.6154 11.8692 36.3236 12.5736 35.8043 13.0929L41.4611 18.7498ZM44.6154 11.1348C44.6154 8.27862 43.4808 5.53943 41.4611 3.51981L35.8043 9.17666C36.3236 9.69599 36.6154 10.4004 36.6154 11.1348H44.6154ZM41.4611 3.51981C39.4415 1.50018 36.7023 0.365572 33.8462 0.365572V8.36557C34.5806 8.36557 35.285 8.65733 35.8043 9.17666L41.4611 3.51981ZM4 26.3656C4 26.08 4.11346 25.806 4.31542 25.6041L-1.34143 19.9472C-3.04368 21.6495 -4 23.9582 -4 26.3656H4ZM4.31542 25.6041C4.51739 25.4021 4.7913 25.2886 5.07692 25.2886L5.07692 17.2886C2.66957 17.2886 0.360824 18.245 -1.34143 19.9472L4.31542 25.6041ZM5.07692 25.2886H22V17.2886H5.07692V25.2886ZM22 25.2886C22.2856 25.2886 22.5595 25.4021 22.7615 25.6041L28.4184 19.9472C26.7161 18.245 24.4073 17.2886 22 17.2886V25.2886ZM22.7615 25.6041C22.9635 25.806 23.0769 26.08 23.0769 26.3656H31.0769C31.0769 23.9582 30.1206 21.6495 28.4184 19.9472L22.7615 25.6041ZM23.0769 26.3656V26.7446H31.0769V26.3656H23.0769ZM23.078 26.6524C23.0775 26.6746 23.0759 26.6968 23.0731 26.719L31.013 27.6977C31.0482 27.412 31.0692 27.1247 31.0759 26.8369L23.078 26.6524ZM23.0704 26.7414C22.9574 27.7025 22.5998 28.6186 22.0316 29.402L28.5075 34.099C29.8793 32.2076 30.743 29.9959 31.0157 27.6753L23.0704 26.7414ZM22.0303 29.4037C21.0745 30.723 18.8812 32.5194 13.5385 32.5194V40.5194C20.9151 40.5194 25.7618 37.8888 28.5087 34.0973L22.0303 29.4037ZM13.5385 32.5194C8.20181 32.5194 6.00362 30.7245 5.03913 29.3981L-1.43113 34.1029C1.32069 37.8873 6.1625 40.5194 13.5385 40.5194V32.5194ZM5.04366 29.4043C4.47616 28.6207 4.11916 27.7046 4.00676 26.7437L-3.93907 27.673C-3.66772 29.9931 -2.80578 32.2048 -1.43566 34.0967L5.04366 29.4043ZM4.01015 26.7736C4.00375 26.715 3.99946 26.6563 3.99729 26.5974L-3.99729 26.8919C-3.98804 27.1429 -3.96975 27.3934 -3.94246 27.6431L4.01015 26.7736ZM4 26.7446V26.3656H-4V26.7446H4ZM-0.615385 26.6702V26.6939H7.38462V26.6702H-0.615385ZM-0.602123 27.0193L-0.588585 27.1852L7.38489 26.5343L7.37135 26.3684L-0.602123 27.0193ZM-0.570909 27.3563C-0.356239 29.0723 0.28822 30.7063 1.30272 32.1068L7.78159 27.4138C7.55722 27.1041 7.41469 26.7427 7.36722 26.3632L-0.570909 27.3563ZM1.30783 32.1139C3.30099 34.8529 7.02141 37.1348 13.5385 37.1348V29.1348C9.07582 29.1348 7.99009 27.7003 7.77647 27.4068L1.30783 32.1139ZM13.5385 37.1348C20.0555 37.1348 23.7759 34.8529 25.7691 32.1139L19.3004 27.4068C19.0868 27.7003 18.0011 29.1348 13.5385 29.1348V37.1348ZM25.7742 32.1068C26.7887 30.7063 27.4332 29.0723 27.6478 27.3563L19.7097 26.3632C19.6622 26.7427 19.5197 27.1041 19.2953 27.4138L25.7742 32.1068ZM27.6558 27.2882C27.6697 27.159 27.68 27.0294 27.6868 26.8997L19.6978 26.4813C19.6987 26.4646 19.7 26.4479 19.7018 26.4312L27.6558 27.2882ZM27.6923 26.6905V26.3656H19.6923V26.6905H27.6923ZM27.6923 26.3656C27.6923 24.8559 27.0926 23.408 26.0251 22.3405L20.3682 27.9974C19.9354 27.5646 19.6923 26.9776 19.6923 26.3656H27.6923ZM26.0251 22.3405C24.9575 21.273 23.5097 20.6733 22 20.6733V28.6733C21.388 28.6733 20.801 28.4301 20.3682 27.9974L26.0251 22.3405ZM22 20.6733H5.07692V28.6733H22V20.6733ZM5.07692 20.6733C3.56724 20.6733 2.11937 21.273 1.05185 22.3405L6.70871 27.9974C6.27593 28.4301 5.68895 28.6733 5.07692 28.6733V20.6733ZM1.05185 22.3405C-0.0156615 23.408 -0.615385 24.8559 -0.615385 26.3656H7.38462C7.38462 26.9776 7.14149 27.5646 6.70871 27.9974L1.05185 22.3405ZM-0.615385 26.3656V26.6702H7.38462V26.3656H-0.615385ZM33.8462 29.1348C32.2619 29.1348 31.122 28.8924 30.3238 28.5895L27.4854 36.069C29.3272 36.768 31.4501 37.1348 33.8462 37.1348V29.1348ZM32.4155 34.246C33.1247 32.9469 33.6615 31.561 34.0124 30.1232L26.2405 28.2264C26.0544 28.9888 25.7698 29.7237 25.3937 30.4126L32.4155 34.246ZM28.7158 32.9178C30.1578 33.4613 31.8554 33.7502 33.8462 33.7502V25.7502C32.6215 25.7502 31.9092 25.572 31.5371 25.4318L28.7158 32.9178ZM33.8462 33.7502C38.6886 33.7502 41.5674 32.0119 43.1303 29.8145L36.6112 25.1776C36.6107 25.1783 36.6092 25.1803 36.6059 25.1841C36.6025 25.1877 36.5945 25.1962 36.5797 25.2088C36.5536 25.231 36.4796 25.2892 36.3266 25.3608C36.021 25.5038 35.29 25.7502 33.8462 25.7502V33.7502ZM43.128 29.8177C43.9135 28.7157 44.412 27.4353 44.5783 26.0923L36.6389 25.109C36.636 25.1326 36.6273 25.155 36.6135 25.1743L43.128 29.8177ZM44.5985 25.8856L44.6052 25.7908L36.6255 25.2209L36.6188 25.3157L44.5985 25.8856ZM44.6149 25.4419C44.5945 24.1701 44.075 22.9573 43.1683 22.0651L37.5573 27.7674C36.9672 27.1868 36.6291 26.3975 36.6159 25.5699L44.6149 25.4419ZM43.1683 22.0651C42.2617 21.173 41.0407 20.6731 39.7687 20.6733L39.7697 28.6733C38.942 28.6734 38.1473 28.348 37.5573 27.7674L43.1683 22.0651ZM39.7692 20.6733H30.2923V28.6733H39.7692V20.6733ZM34.2119 23.8753C33.8434 22.0654 33.0762 20.3604 31.9659 18.8843L25.5725 23.693C25.9681 24.2189 26.2414 24.8264 26.3727 25.4712L34.2119 23.8753ZM28.7692 25.2886H39.7692V17.2886H28.7692V25.2886ZM39.7692 25.2886C39.8955 25.2886 40 25.3932 40 25.5194H48C48 20.9749 44.3138 17.2886 39.7692 17.2886V25.2886ZM40 25.5194V25.577H48V25.5194H40ZM40.0022 25.4456C40.0016 25.4611 40.0005 25.4766 39.9987 25.4921L47.9471 26.3997C47.9733 26.17 47.9903 25.9394 47.9978 25.7083L40.0022 25.4456ZM39.9982 25.4965C39.931 26.0913 39.7137 26.6592 39.3667 27.1469L45.885 31.7849C47.0183 30.1922 47.728 28.3376 47.9476 26.3952L39.9982 25.4965ZM39.3705 27.1414C38.825 27.9055 37.4734 29.1348 33.8462 29.1348V37.1348C39.5672 37.1348 43.5701 35.0269 45.8812 31.7903L39.3705 27.1414Z" fill="#ED3237" mask="url(#path-1-inside-1_318_390)"/>
</svg>
